<?xml version="1.0" encoding="utf-8" ?>
<svg baseProfile="full" height="300mm" version="1.1" viewBox="0,0,200,300" width="200mm" xmlns="http://www.w3.org/2000/svg" xmlns:ev="http://www.w3.org/2001/xml-events" xmlns:xlink="http://www.w3.org/1999/xlink"><defs /><rect fill="#222222" height="300" width="200" x="0" y="0" /><text fill="#FFFFFF" style="font-size:12px; font-family:Arial; font-weight:bold;" x="10" y="20">Over 1km Runs</text><text fill="#FFFFFF" style="font-size:4px; font-family:Arial" x="10" y="280">ATHLETE</text><text fill="#FFFFFF" style="font-size:9px; font-family:Arial" x="10" y="290">Ginta</text><text fill="#FFFFFF" style="font-size:4px; font-family:Arial" x="120" y="280">STATISTICS</text><text fill="#FFFFFF" style="font-size:3px; font-family:Arial" x="120" y="285">Number: 4</text><text fill="#FFFFFF" style="font-size:3px; font-family:Arial" x="120" y="290">Weekly: 1.3</text><text fill="#FFFFFF" style="font-size:3px; font-family:Arial" x="141" y="285">Total: 18.3 km</text><text fill="#FFFFFF" style="font-size:3px; font-family:Arial" x="141" y="290">Avg: 4.6 km</text><text fill="#FFFFFF" style="font-size:3px; font-family:Arial" x="167" y="285">Min: 3.2 km</text><text fill="#FFFFFF" style="font-size:3px; font-family:Arial" x="167" y="290">Max: 5.1 km</text><polyline fill="none" points="73.93343653250486,109.37123246537521 68.16563467495143,113.71853372547776 64.40402476862073,113.44682754506357 62.6486068116501,111.81659004697576 57.13157894834876,106.9258732823655 52.11609907262027,102.8502710829489 50.109907121397555,101.22002895735204 43.08823529537767,95.78588339756243 36.81888544932008,90.080022045644 33.308049536310136,86.54781779041514 26.78792569693178,80.0268165380694 25.53405572846532,79.21169058117084 24.280185759067535,78.12485569389537 20.769349846988916,75.13605812331662 19.01393188908696,73.23409478738904 17.258513933047652,71.87554895388894 16.506191951222718,63.180843910435215 19.515479877591133,59.64861420169473 21.270897834561765,58.018353208201006 27.038699692115188,50.95388067793101 28.543343654833734,49.32361588743515 33.308049536310136,44.43281724350527 34.5619195047766,42.530838262988254 36.568111455999315,40.90056979423389 39.07585139386356,37.368319001514465 51.6145510841161,41.98741551931016 54.623839009553194,44.70452844770625 59.137770898640156,49.32361588743515 60.14086687378585,50.41045916033909 65.40712074376643,55.8446707772091 66.91176470648497,57.474932719254866 68.41640866920352,59.10519394930452 71.67647058796138,62.90913405152969 81.95820433460176,74.86434913473204 83.21207430306822,76.49460277077742 84.46594427339733,78.12485569389537 87.7260061930865,81.38535940577276 89.23065015580505,83.01561019266956 90.7352941185236,84.37415197212249 93.49380805063993,87.63465022481978 90.7352941185236,96.05759086366743 88.97987616155297,97.14442052925006 83.46284829825163,101.49173602811061 80.7043343661353,103.66539187869057 78.19659442733973,107.46928657218814 70.92414860799909,112.08829634590074 69.16873065102845,113.17512134439312 63.40092879347503,112.36000262596644 59.137770898640156,109.09952596854419 52.86842105444521,103.93709877110086 48.856037152931094,101.22002895735204 47.10061919596046,99.5897861206904 45.84674922656268,98.50295716617256 42.085139320231974,94.97076088096946 40.83126935083419,93.34051531506702 39.82817337568849,92.52539226436056 36.568111455999315,89.26489828340709 32.80650154966861,86.2761096325703 29.29566563665867,83.01561019266956 28.041795667260885,81.65706791938283 26.035603716038167,80.0268165380694 22.273993809707463,76.49460277077742 20.51857585273683,74.59264012612402 18.763157894834876,72.96238566027023 15.252321981824934,69.9735839557834 14.5,63.99597336864099 17.509287926368415,60.19203437445685 20.769349846988916,57.20322244474664 22.023219815455377,55.8446707772091 23.77863777242601,53.94269761117175 26.286377710290253,50.95388067793101 34.31114551238716,41.98741551931016 36.066563468426466,40.08543529245071 37.069659444503486,38.998589013004676 45.595975233241916,36.28147193044424 47.60216718353331,37.64003071980551 51.11300309654325,40.90056979423389 53.11919504776597,42.530838262988254 56.63003096077591,46.33479525544681 58.134674922563136,47.96506135142408 59.639318886213005,49.59532673540525 63.40092879347503,53.12756595783867 72.17801857739687,63.180843910435215 75.93962848279625,68.07161798910238 77.6950464406982,69.70187459141016 80.95510836038738,73.50580389448442 82.20897832978517,74.86434913473204 83.71362229250371,76.7663116408512 90.48452012427151,83.55902696377598 91.98916408699006,85.46098503936082 94.99845201335847,88.99319032300264 90.98606811184436,95.78588339756243 89.23065015580505,97.14442052925006 87.4752321979031,98.23124987841584 79.45046439673752,105.02392614330165 77.94582043495029,106.65416660695337 69.67027863766998,112.63170888531022 60.39164086710662,109.91464539989829 58.38544891681522,108.01269978354685 54.87461300380528,104.75221932982095 50.36068111471832,101.49173602811061 48.856037152931094,99.86149330902845 45.09442724566907,97.14442052925006 41.58359133359045,94.15563818719238 40.078947369009256,92.2536845416762 38.07275541871786,90.62343778833747 33.80959752481431,87.0912340474315 26.53715170454234,80.0268165380694 24.5309597523883,78.39656444569118 21.020123839378357,74.86434913473204 19.26470588427037,73.23409478738904 17.509287926368415,71.87554895388894 14.5,64.26768314815126 17.00773993972689,60.73545446805656 18.512383902445436,59.37690408551134 20.267801858484745,58.018353208201006 23.77863777242601,54.21440812270157 26.53715170454234,50.682169928913936 29.797213623300195,47.14992839237675 32.054179567843676,44.70452844770625 33.05727554298937,43.617683513555676 35.81578947417438,40.90056979423389 37.069659444503486,38.998589013004676 38.82507739961147,37.368319001514465 45.09442724566907,36.009760114131495 48.856037152931094,39.27030061278492 53.87151702772826,44.161106020445004 55.37616099137813,45.791373065905645 58.63622291199863,48.780194132588804 60.14086687378585,50.138748371973634 65.40712074376643,55.8446707772091 66.91176470648497,57.20322244474664 69.92105263285339,61.00716448551975 71.92724458221346,62.90913405152969 76.69195046555251,68.34332747245207 78.44736842159182,70.24529330083169 81.95820433460176,74.32093109819107 83.46284829825163,75.95118497125804 86.47213622368872,79.21169058117084 87.7260061930865,81.38535940577276 91.98916408699006,85.46098503936082 93.74458204489201,87.0912340474315 94.74767801910639,88.44977434282191 92.23993808217347,93.88393058255315 89.23065015580505,96.60100573580712 87.22445820458233,98.23124987841584 85.21826625429094,99.86149330902845 81.95820433460176,102.57856411160901 80.45356037188321,104.48051249654964 78.94891640916467,105.83904646406882 72.6795665640384,110.72976465313695 69.16873065102845,113.17512134439312 62.14705882500857,110.72976465313695 60.14086687378585,109.37123246537521 58.38544891681522,108.01269978354685 54.37306501716375,104.75221932982095 52.6176470592618,103.12197803449817 48.856037152931094,100.40490762796253 46.849845201708376,98.77466443483718 45.34520123898983,97.14442052925006 42.085139320231974,93.88393058255315 38.57430340722203,90.62343778833747 34.5619195047766,87.90635828441009 33.05727554298937,87.0912340474315 28.041795667260885,81.92877641390078 26.53715170454234,80.29852515109815 24.781733747571707,78.66827317723073 19.766253870911896,74.0492220504675 18.26160990819335,72.41896734642796 16.506191951222718,70.78871193062514 15.50309597607702,63.180843910435215 20.017027865163982,58.018353208201006 24.5309597523883,53.12756595783867 25.53405572846532,51.769012806005776 27.540247678756714,49.32361588743515 30.54953560512513,46.06308417045511 32.054179567843676,44.43281724350527 33.55882353056222,43.07426092843525 36.31733746267855,39.54201219254173 38.32352941296995,37.64003071980551 46.59907120838761,36.82489550602622 48.354489165358245,38.18345409631729 50.109907121397555,39.54201219254173 53.11919504776597,42.80254960549064 54.87461300380528,44.43281724350527 56.63003096077591,46.06308417045511 59.639318886213005,49.05190501944162 65.65789473801851,55.57296038395725 68.91795665677637,59.10519394930452 70.42260061949492,61.00716448551975 74.68575851432979,66.16965105314739 75.93962848279625,67.52819896349683 76.94272445887327,68.88674637931399 80.20278637856245,72.69067651289515 81.70743034034967,74.32093109819107 83.21207430306822,75.95118497125804 87.7260061930865,81.38535940577276 88.97987616155297,82.74390177754685 93.99535603728145,87.0912340474315 95.5,88.72148234327324 93.74458204489201,93.61222295835614 91.7383900936693,94.97076088096946 86.22136222943664,99.31807891163044 83.71362229250371,101.49173602811061 80.95510836038738,104.20880564395338 79.45046439673752,105.83904646406882 77.6950464406982,107.46928657218814 73.43188854586333,110.45805825549178 69.67027863766998,112.90341512509622 67.914860682562,113.9902398858685 60.14086687378585,109.09952596854419 58.134674922563136,107.74099318822846 56.12848297227174,106.38245991244912 52.11609907262027,103.39368496695533 45.595975233241916,97.41612789663486 43.840557277202606,96.32929830974899 42.33591331355274,94.69905333616771 37.32043343875557,89.80831414461136 35.06346749421209,88.1780663235113 31.30185758601874,84.37415197212249 27.28947368543595,80.57023374456912 25.283281735144556,79.4833992535714 21.52167182788253,76.22289388021454 20.267801858484745,74.86434913473204 19.01393188908696,73.50580389448442 15.001547989435494,69.9735839557834 14.750773995183408,64.26768314815126 15.50309597607702,62.90913405152969 17.509287926368415,60.463744431268424 18.763157894834876,58.83348379400559 20.51857585273683,57.20322244474664 23.77863777242601,53.39927652827464 25.283281735144556,52.04072347609326 26.78792569693178,50.138748371973634 36.568111455999315,38.726877393666655 38.32352941296995,37.368319001514465 46.849845201708376,37.368319001514465 50.36068111471832,40.35714681283571 52.11609907262027,41.71570411720313 57.13157894834876,46.87821736652404 58.38544891681522,48.780194132588804 62.39783281739801,53.39927652827464 70.673374613747,61.00716448551975 72.17801857739687,63.180843910435215 73.43188854586333,64.53939290787093 76.69195046555251,68.07161798910238 79.95201238524169,72.41896734642796 81.45665634796023,74.32093109819107 84.21517027914524,77.85314692300744 85.71981424279511,80.0268165380694 88.72910216730088,83.8307353197597 92.741486068815,86.81952592916787 93.49380805063993,93.06880765128881 91.48761610034853,94.69905333616771 89.73219814244658,95.78588339756243 83.21207430306822,102.30685712071136 81.45665634796023,103.93709877110086 74.93653250858188,110.1863518373575 72.6795665640384,111.544883728493 64.40402476862073,112.90341512509622 63.40092879347503,111.81659004697576 56.880804954096675,106.65416660695337 53.87151702772826,104.48051249654964 49.608359133824706,101.22002895735204 45.84674922656268,97.68783524329774 43.58978328295052,95.51417591189966 40.078947369009256,92.2536845416762 38.07275541871786,90.89514562976547" stroke="#4dd2ff" stroke-linecap="round" stroke-linejoin="round" stroke-width="0.5"><title>2023-07-26 5.1km</title></polyline><polyline fill="none" points="163.45412843953818,107.34048188687302 158.00458715576679,111.09784083650447 156.51834862306714,112.43975381855853 153.29816513787955,112.17137126112357 150.32568807341158,109.21916184062138 148.83944954071194,107.07209895830601 147.35321100894362,105.46180097665638 143.88532110024244,101.97281960374676 141.90366972517222,100.36251939553767 140.1697247698903,99.28898553247564 136.45412843953818,95.79999831924215 134.47247706446797,93.92131152865477 128.77522935718298,88.82201398769394 127.28899082541466,87.2117080357857 123.07798165082932,84.25947863142937 119.36238532140851,81.3072468622122 117.6284403661266,79.6969376290217 116.38990825694054,78.623397749383 113.66513761412352,76.20793187688105 112.1788990823552,75.13439098116942 110.44495412800461,73.52407905156724 107.72018348518759,70.8402242725715 106.48165137600154,69.49829615093768 104.99541284330189,68.15636754012667 104.5,64.6673508672975 106.97706421930343,61.9834896416869 109.4541284404695,60.10478562163189 111.18807339295745,58.49446712736972 113.91284403670579,55.0054413122125 115.15137614589185,52.85834686132148 119.11467889882624,48.832541396608576 123.07798165082932,44.53834405564703 137.19724770635366,37.8286506976001 138.68348623719066,39.17059034621343 140.1697247698903,40.78091727918945 143.14220183435827,44.001569035695866 147.6009174315259,48.564154209103435 149.08715596422553,50.17447703983635 153.54587155859917,54.7370545740705 158.9954128433019,59.56801286851987 160.72935779765248,61.17833089292981 164.44495412893593,64.39896483300254 167.41743119247258,67.61959595931694 168.65596330258995,69.76668181433342 169.89449541270733,71.37699538446032 172.8669724771753,74.59762041596696 174.6009174315259,75.93954668240622 178.8119266051799,81.03886203933507 180.29816513787955,83.18594007985666 183.51834862399846,87.2117080357857 181.0412844037637,93.65292762336321 179.05963302683085,95.26323076244444 177.32568807341158,96.33676579780877 174.6009174315259,98.48383493046276 168.40825688000768,103.85150229232386 166.42660550400615,105.19341791141778 162.21559633035213,108.4140134062618 158.00458715576679,111.09784083650447 149.33486238587648,107.87724768533371 147.10550458729267,105.46180097665638 143.6376146785915,101.97281960374676 140.66513761412352,99.28898553247564 139.17889908328652,97.94706776412204 137.69266055058688,96.33676579780877 133.97706422023475,92.84777579037473 131.99541284423321,90.70070337597281 128.27981651294976,87.2117080357857 119.61009174305946,80.50209233397618 117.38073394540697,79.16016772785224 116.38990825694054,78.08662769175135 113.41743119154125,75.67116146814078 107.96788990776986,70.57183868763968 106.72935779765248,69.22991046728566 106.97706421930343,61.71510341204703 109.20642201788723,59.56801286851987 113.66513761412352,54.46866781706922 117.87614678870887,50.17447703983635 119.61009174305946,48.29576700273901 122.83027522917837,45.07511899690144 124.56422018352896,43.1964063604828 126.29816513694823,41.58608048246242 136.94954128470272,37.8286506976001 139.92201834823936,40.78091727918945 141.40825688000768,42.39124350948259 142.894495411776,44.001569035695866 145.86697247624397,47.222217980073765 151.3165137609467,52.05318612023257 154.78440366964787,55.81060140929185 160.2339449543506,60.90994460484944 162.21559633035213,62.25187585223466 165.43577981647104,66.00928074773401 166.42660550400615,67.08282430050895 168.16055045928806,69.22991046728566 171.62844036705792,73.2556936617475 173.11467889975756,74.59762041596696 176.58256880752742,78.623397749383 178.06880734022707,80.77047719620168 181.78440366964787,84.52786321984604 183.2706422014162,86.4065547962673 181.0412844037637,93.65292762336321 179.05963302683085,95.26323076244444 177.07798165176064,96.33676579780877 169.64678899105638,103.04635268589482 165.93119266070426,105.73018402303569 163.9495412837714,107.34048188687302 159.73853211011738,110.29269281239249 153.29816513787955,112.43975381855853 151.81192660611123,110.82945818058215 148.34403669741005,107.07209895830601 146.61009174212813,105.19341791141778 142.894495411776,101.43605294590816 140.91284403577447,99.55736902775243 137.19724770635366,96.06838206783868 135.2155963294208,94.45807928056456 133.72935779765248,92.57939180661924 130.2614678889513,89.62716670008376 128.77522935718298,88.01686109951697 124.56422018352896,84.79624778940342 122.08715596329421,83.45432474697009 118.8669724771753,80.50209233397618 117.87614678870887,79.42855268809944 116.63761467859149,78.35501273046248 113.41743119154125,75.40277623408474 111.18807339295745,73.52407905156724 109.70183486118913,72.18215190642513 105.49082568660378,68.15636754012667 107.96788990776986,61.17833089292981 109.70183486118913,59.2996264626272 114.408256880939,54.2002810400445 121.83944954071194,46.14866864471696 126.79357798118144,40.78091727918945 128.27981651294976,38.902202455326915 135.71100917365402,36.75509862671606 137.19724770635366,38.09703866625205 140.1697247698903,41.04930503317155 141.65596330258995,42.659631146583706 142.894495411776,44.269956555450335 145.86697247624397,46.95383067545481 148.59174311812967,49.637702841544524 154.0412844028324,55.54221472959034 155.77522935718298,57.15253451257013 157.5091743124649,58.76285359240137 165.683486238122,65.74089481099509 168.40825688000768,69.76668181433342 173.61009174305946,75.40277623408474 175.34403669741005,77.2814724596683 178.8119266051799,81.03886203933507 180.5458715595305,83.18594007985666 180.5458715595305,93.92131152865477 179.05963302683085,95.26323076244444 177.07798165176064,96.33676579780877 171.1330275228247,101.43605294590816 169.64678899105638,102.77796944463626 167.66513761412352,104.11988545511849 163.45412843953818,107.60886479634792 161.72018348705024,108.68239623680711 160.2339449543506,110.29269281239249 156.2706422014162,113.24490137351677 153.29816513787955,112.17137126112357 151.56422018446028,110.29269281239249 147.84862385317683,106.53533304319717 145.86697247624397,104.65665172226727 142.3990825684741,101.16766958800144 140.66513761412352,99.55736902775243 136.94954128470272,95.79999831924215 134.96788990870118,93.92131152865477 131.5,90.43231923668645 123.82110091671348,83.99109402229078 117.6284403661266,79.42855268809944 116.14220183435827,78.35501273046248 114.408256880939,76.74470220762305 110.94036697223783,73.79246442159638 109.20642201788723,72.45053737447597 107.72018348518759,70.8402242725715 108.2155963294208,60.10478562163189 109.9495412837714,58.49446712736972 111.68348623905331,56.88414793089032 114.9036697242409,53.39512059162371 118.37155963201076,49.369315712247044 119.8577981647104,48.027379776351154 121.59174311999232,46.41705600754358 124.8119266051799,42.659631146583706 127.78440366964787,39.43897821684368 129.27064220234752,37.8286506976001 136.94954128470272,37.8286506976001 138.68348623719066,39.70736606861465 140.1697247698903,41.31769276713021 142.894495411776,43.733181497314945 143.88532110024244,45.34350643819198 145.61926605459303,46.95383067545481 148.83944954071194,50.442864110227674 154.0412844028324,55.81060140929185 158.00458715576679,58.76285359240137 159.49082568846643,60.10478562163189 161.47247706353664,61.71510341204703 164.69266055058688,64.6673508672975 165.93119266070426,66.27766666514799 170.38990825694054,72.18215190642513 171.87614678777754,74.06084977276623 173.11467889975756,75.67116146814078 176.08715596236289,79.16016772785224 177.8211009176448,81.03886203933507 181.0412844037637,84.25947863142937 182.52752293553203,86.13817034428939 184.01376146730036,88.01686109951697 181.53669724799693,93.38454369874671 179.30733944941312,94.72646312741563 178.3165137609467,95.79999831924215 174.6009174315259,98.48383493046276 170.6376146785915,101.43605294590816 168.90366972517222,103.04635268589482 166.92201834917068,104.38826859835535 162.9587155962363,107.07209895830601 161.2247706418857,108.68239623680711 159.73853211011738,110.5610755062662 156.02293577976525,113.24490137351677 153.05045871529728,112.17137126112357 151.3165137609467,110.5610755062662 148.59174311812967,106.26695005549118 144.62844036705792,103.04635268589482 142.3990825684741,101.70443628472276 138.93119265977293,98.48383493046276 137.19724770635366,97.14191686850972 135.71100917365402,95.26323076244444 130.50917431153357,90.70070337597281 129.02293577976525,88.82201398769394 125.3073394484818,85.3330168700777 123.07798165082932,84.25947863142937 119.61009174305946,81.57563166646287 118.37155963201076,80.23370745196007 116.63761467859149,78.623397749383 113.16972477082163,75.67116146814078 109.70183486118913,72.7189228227362 108.2155963294208,71.37699538446032 106.72935779765248,69.49829615093768 107.72018348518759,60.90994460484944 114.16055045835674,54.2002810400445 115.64678899012506,52.58995996764861 116.88532110024244,50.979638191871345 120.10550458729267,47.75899253040552 123.07798165082932,44.80673153582029 124.8119266051799,42.92801876296289 127.5366972470656,39.70736606861465 136.70183486212045,38.09703866625205 138.18807339388877,39.43897821684368 139.42660550493747,41.04930503317155 142.64678899105638,44.269956555450335 144.1330275228247,45.61189385969192 145.86697247624397,47.222217980073765 151.06880733929574,52.58995996764861 152.5550458719954,54.2002810400445 159.49082568846643,60.37317196908407 163.20642201788723,63.32542049884796 164.69266055058688,64.6673508672975 166.17889908142388,66.54605256277137 168.65596330258995,70.8402242725715 171.87614678777754,74.32923510391265 173.11467889975756,75.93954668240622 174.6009174315259,77.54985755705275 177.57339449506253,81.03886203933507 179.5550458719954,82.91755539295264 182.52752293553203,86.67493922892027 183.76605504658073,88.01686109951697 185.5,90.43231923668645 179.30733944941312,94.99484695470892 177.57339449506253,96.33676579780877 167.41743119247258,103.85150229232386 163.45412843953818,106.80371601041406 161.72018348705024,108.14563055546023 158.25229357834905,111.09784083650447 153.79357798118144,112.70813635620289 152.05963302776217,111.36622347170487 150.32568807341158,109.21916184062138 144.38073394447565,103.31473590736277 142.64678899105638,101.43605294590816 138.68348623719066,97.94706776412204 136.94954128470272,96.06838206783868 133.72935779765248,93.11615975457244 130.50917431153357,90.16393507714383 129.27064220234752,89.09039824455976" stroke="#4dd2ff" stroke-linecap="round" stroke-linejoin="round" stroke-width="0.5"><title>2023-07-25 5.0km</title></polyline><polyline fill="none" points="54.23584905639291,253.28816805547103 45.83018867857754,246.38868619455025 43.79245282988995,243.6288899348583 39.207547169178724,239.21321174083278 36.15094339568168,237.00537071516737 30.547169811092317,232.5896848081611 28.764150943607092,230.38183992588893 24.433962264098227,226.79408925026655 22.396226414479315,225.414184239693 18.320754717104137,221.55044754012488 15.518867924809456,212.7190345840063 16.53773584868759,210.78716025711037 20.103773585520685,207.1993910400197 21.632075470872223,205.81947889830917 27.23584905732423,199.7478595089633 28.509433962404728,197.81597857293673 31.820754716172814,194.5041803936474 36.66037735808641,189.536477699643 38.69811320770532,186.7766400568653 45.32075471710414,184.84475251100957 52.96226415038109,192.5722967858892 61.622641508467495,200.5758081797976 67.73584905639291,206.92340865149163 72.57547169737518,211.61510651768185 75.63207547087222,215.478853342589 82.76415094267577,223.48231638222933 84.54716981109232,225.13820317783393 95.5,240.8690916665364 93.46226415038109,242.52497086836956 87.8584905648604,246.94064520555548 85.82075471617281,249.14848044584505 80.72641509398818,253.28816805547103 77.9245283016935,255.2200207267888 72.57547169737518,259.9116588309407 67.99056603759527,263.2233998798765 63.15094339568168,259.6356802796945 58.820754716172814,256.59991488978267 56.52830188535154,254.66806292161345 52.198113206773996,251.35631440021098 37.169811320491135,237.8333112502005 31.31132075469941,233.14164582733065 29.27358490601182,231.48576252697967 24.433962264098227,227.07007019175217 22.650943396613002,225.6901652822271 18.5754716983065,221.82642886321992 16.283018867485225,219.6185777138453 15.773584905080497,212.44305259734392 21.377358491532505,206.09546136646532 22.905660377815366,204.43956625438295 26.216981131583452,201.12777386046946 30.80188679229468,194.22819708124734 35.89622641541064,188.98451033164747 45.57547169737518,185.67270443681628 49.14150943234563,188.70852661761455 50.9245283016935,190.08844498661347 54.99999999906868,193.67623039660975 56.783018867485225,195.60811344115064 63.40566037688404,202.50768770975992 65.18867924436927,204.43956625438295 68.5,207.75135575560853 72.57547169737518,211.89108856441453 75.88679245207459,215.75483510782942 77.41509433742613,217.68670690315776 81.99999999906868,222.378391450271 93.46226415038109,236.1774299996905 90.91509433928877,245.00878831534646 88.6226415084675,246.66466570971534 84.03773584868759,250.52837681747042 81.99999999906868,252.46023089508526 77.66981131955981,255.77197845256887 74.61320754606277,257.70382985821925 70.79245282895863,261.29155128635466 66.20754716917872,263.2233998798765 64.16981132049114,261.29155128635466 62.38679245300591,259.6356802796945 50.66981131955981,249.97641832893714 46.084905659779906,246.38868619455025 42.7735849050805,242.52497086836956 38.95283018890768,238.93723168317229 36.40566037688404,237.55733109219 28.764150943607092,231.209781907266 26.981132075190544,229.2779170020949 21.122641509398818,223.75829756469466 15.264150943607092,218.2386700923089 14.5,214.65090792579576 17.30188679229468,210.78716025711037 19.08490566071123,208.57930267928168 25.96226415131241,200.8517910304945 30.547169811092317,195.05614695721306 36.15094339568168,188.98451033164747 37.93396226409823,187.0526239112951 47.61320754699409,187.0526239112951 49.650943396613,188.43254288309254 51.17924528196454,190.36442860006355 53.981132075190544,193.40024702367373 55.50943396240473,195.05614695721306 57.54716981109232,196.98802929976955 61.622641508467495,201.40375667018816 68.24528301786631,208.30332039133646 70.02830188535154,209.9592138165608 73.33962264098227,213.27099849609658 84.80188679136336,225.96614630450495 86.83962264098227,227.89801289653406 90.15094339568168,232.03772370750085 92.95283018704504,235.62546942173503 95.24528301786631,237.55733109219 81.74528301786631,252.7362099683378 79.7075471682474,254.39208398829214 75.88679245207459,257.70382985821925 73.849056603387,258.8077445048839 65.698113206774,262.94742156914435 58.820754716172814,256.59991488978267 53.981132075190544,254.11610503518023 49.14150943234563,249.97641832893714 47.61320754699409,248.04456298588775 39.46226415131241,240.8690916665364 36.15094339568168,237.55733109219 31.566037736833096,233.96958720637485 29.783018867485225,232.5896848081611 24.68867924530059,227.3460511129815 23.160377358086407,225.6901652822271 21.122641509398818,224.0342787276022 19.08490566071123,208.8552849467378 20.358490565791726,207.1993910400197 21.377358491532505,205.81947889830917 24.943396225571632,201.95572223025374 28.0,197.81597857293673 29.528301887214184,195.88409665296786 35.132075471803546,190.36442860006355 36.66037735808641,188.43254288309254 39.971698112785816,185.3967204822693 46.33962264098227,185.67270443681628 49.650943396613,188.98451033164747 50.9245283016935,190.36442860006355 54.99999999906868,195.33213020977564 62.64150943327695,202.7836704191286 66.71698113065213,206.37144381506369 70.2830188665539,209.6832316289656 71.55660377256572,210.78716025711037 75.63207547087222,216.03081685304642 77.16037735808641,217.68670690315776 78.68867924436927,219.34259622963145 85.82075471617281,227.3460511129815 87.349056603387,229.2779170020949 94.22641509305686,237.00537071516737 91.16981131955981,245.00878831534646 87.60377358272672,248.04456298588775 84.80188679136336,250.25239758356474 81.23584905546159,253.56414706865326 79.45283018890768,254.66806292161345 75.1226415084675,257.9798085496295 73.33962264098227,259.9116588309407 66.46226415038109,265.1552474889904 64.9339622631669,263.2233998798765 60.8584905648604,259.9116588309407 52.96226415038109,253.01218902226537 49.14150943234563,249.14848044584505 44.04716981109232,244.18084934726357 41.75471698027104,242.52497086836956 37.67924528196454,239.48919177846983 35.64150943327695,237.8333112502005 31.566037736833096,234.24556762562133 30.03773584961891,232.31370426737703 21.632075470872223,224.86222209548578 17.556603773497045,221.2744661963079 16.283018867485225,219.89455917757004 18.320754717104137,208.8552849467378 22.14150943327695,205.54349640966393 23.9245283016935,203.6116184273269 25.452830188907683,201.95572223025374 29.018867923878133,197.26401241123676 33.858490565791726,192.02032985980622 35.38679245207459,189.81246135290712 39.207547169178724,185.67270443681628 47.61320754699409,187.60459156008437 49.396226414479315,189.26049402542412 54.49056603759527,193.95221374882385 58.820754716172814,198.9199106572196 62.896226414479315,202.2317049796693 64.67924528196454,204.16358366515487 68.24528301786631,207.75135575560853 71.30188679229468,211.33912445115857 72.57547169737518,212.99501654994674 74.61320754606277,215.20287155685946 83.52830188535154,224.0342787276022 85.31132075469941,225.6901652822271 86.5849056597799,227.62203201511875 90.40566037595272,231.76174312760122 94.99056603573263,237.28135091392323 91.16981131955981,244.7328086795751 89.38679245207459,246.66466570971534 82.76415094267577,251.90827268804424 80.4716981118545,253.84012606204487 74.61320754606277,258.8077445048839 72.32075471617281,260.4636158735957 68.5,263.4993781701196 65.18867924436927,263.7753564398736 56.52830188535154,257.1518724139314 54.99999999906868,255.49599959957413 53.471698111854494,253.84012606204487 49.14150943234563,249.97641832893714 47.61320754699409,248.3205423813779 44.30188679229468,245.28476793132722 42.26415094360709,243.90486965118907 35.89622641541064,238.10929138888605 33.858490565791726,236.45341025828384 30.03773584961891,233.14164582733065" stroke="#4dd2ff" stroke-linecap="round" stroke-linejoin="round" stroke-width="0.5"><title>2023-04-12 5.0km</title></polyline><polyline fill="none" points="113.71951219439507,231.4215897731483 120.96341463550925,234.98912881314754 132.81707317009568,238.55666655302048 156.52439024671912,238.55666655302048 162.45121951401234,233.5621133511886 166.40243902429938,230.7080818079412 144.6707317084074,214.29738430771977 129.52439024299383,221.4324735533446 107.13414634391665,229.2810657247901 113.71951219439507,232.1350976843387 132.1585365869105,238.55666655302048 155.86585365980864,240.69718857482076 159.1585365831852,235.70263646449894 166.40243902429938,227.1405412107706 146.64634146541357,211.44334715604782 142.69512195140123,215.0108934668824 132.81707317009568,218.578438478522 127.54878048971295,219.29194732476026 111.74390244111419,217.15142063051462 106.47560975700617,227.85404943488538 110.42682926729321,230.7080818079412 117.0121951252222,233.5621133511886 128.20731707662344,237.8431591084227 133.47560975700617,238.55666655302048 141.37804878130555,242.1242029964924 160.47560975700617,239.2701739454642 163.76829268410802,234.27562110684812 167.06097561120987,229.994573793374 162.45121951401234,208.58930917363614 146.64634146541357,210.72983773984015 132.1585365869105,217.15142063051462 126.89024390280247,217.15142063051462 115.69512195140123,215.0108934668824 109.76829268410802,228.56755760591477 124.2560975626111,235.70263646449894 132.81707317009568,239.2701739454642 136.10975609719753,240.69718857482076 159.1585365831852,239.98368128668517 163.76829268410802,235.70263646449894 168.37804878130555,231.4215897731483 161.13414634019136,210.01632826868445 147.30487804859877,210.01632826868445 143.35365853831172,213.58387509919703 133.47560975700617,217.15142063051462 128.86585365980864,218.578438478522 113.71951219439507,215.72440257389098 113.06097561120987,229.994573793374 122.28048780560493,234.27562110684812 130.8414634130895,238.55666655302048 135.45121951401234,239.2701739454642 144.6707317084074,242.83771013002843 158.5,239.98368128668517 162.45121951401234,235.70263646449894 166.40243902429938,232.1350976843387 147.96341463178396,211.44334715604782 143.35365853831172,215.0108934668824 134.13414634019136,217.864929581061 128.86585365980864,217.864929581061 123.59756097570062,218.578438478522 107.79268292710185,228.56755760591477 112.40243902429938,231.4215897731483 117.6707317084074,234.27562110684812 126.89024390280247,237.1296516135335 131.5,238.55666655302048 137.4268292710185,239.98368128668517 156.52439024671912,239.98368128668517 160.47560975700617,235.70263646449894 147.30487804859877,212.15685652196407 139.40243902429938,215.72440257389098 127.54878048971295,214.29738430771977 122.28048780560493,213.58387509919703 116.35365853831172,212.87036583665758 104.5,214.29738430771977 111.0853658542037,227.85404943488538 120.30487804859877,232.84860554430634 133.47560975700617,238.55666655302048 144.01219512149692,242.83771013002843 157.8414634168148,242.1242029964924 161.13414634019136,238.55666655302048 164.42682926729321,234.27562110684812 150.59756097570062,209.30281874723732 144.01219512149692,213.58387509919703 132.81707317009568,215.0108934668824 126.23170731961727,214.29738430771977 115.69512195140123,212.87036583665758 109.76829268410802,229.2810657247901 113.71951219439507,230.7080818079412 118.98780488222837,232.84860554430634 122.93902438879013,235.70263646449894 153.23170731961727,239.98368128668517 157.18292682990432,236.4161440646276 161.13414634019136,233.5621133511886 161.13414634019136,209.30281874723732 134.79268292710185,217.864929581061 107.79268292710185,228.56755760591477 115.69512195140123,233.5621133511886 124.9146341457963,237.1296516135335 131.5,237.8431591084227 142.69512195140123,242.83771013002843 156.52439024671912,238.55666655302048 159.81707317009568,234.98912881314754 163.10975609719753,232.1350976843387 162.45121951401234,211.44334715604782 148.62195121869445,209.30281874723732 145.98780487850308,212.15685652196407 130.8414634130895,217.864929581061 124.9146341457963,217.864929581061 114.37804878130555,215.72440257389098 117.0121951252222,232.84860554430634 121.62195122241974,236.4161440646276 132.1585365869105,239.98368128668517 141.37804878130555,242.83771013002843 160.47560975700617,233.5621133511886 165.0853658542037,229.994573793374 163.76829268410802,211.44334715604782 159.81707317009568,208.58930917363614 150.59756097570062,209.30281874723732 132.1585365869105,217.864929581061 125.57317073270679,216.43791162781417 116.35365853831172,215.0108934668824 105.81707317382097,216.43791162781417 111.74390244111419,228.56755760591477 119.64634146168828,234.27562110684812 128.86585365980864,237.8431591084227 133.47560975700617,238.55666655302048 156.52439024671912,238.55666655302048 160.47560975700617,235.70263646449894 165.7439024411142,231.4215897731483 161.13414634019136,212.15685652196407 145.98780487850308,210.72983773984015 148.62195121869445,209.30281874723732 164.42682926729321,212.87036583665758 169.69512195140123,214.29738430771977 172.3292682915926,215.0108934668824 173.64634146541357,215.72440257389098 175.62195121869445,220.71896486356854 176.28048780560493,222.14598219282925 176.93902439251542,222.14598219282925 178.2560975588858,219.29194732476026 180.89024390280247,217.15142063051462 181.54878048598766,218.578438478522 181.54878048598766,218.578438478522 181.54878048598766,217.864929581061 179.57317073270679,216.43791162781417 180.23170731589198,217.15142063051462 182.20731707289815,218.578438478522 180.23170731589198,218.578438478522 180.89024390280247,217.864929581061 181.54878048598766,217.15142063051462 180.89024390280247,215.72440257389098 180.23170731589198,213.58387509919703 180.23170731589198,212.87036583665758 180.23170731589198,216.43791162781417 185.5,207.16228986997157" stroke="#4dd2ff" stroke-linecap="round" stroke-linejoin="round" stroke-width="0.5"><title>2021-05-19 3.2km</title></polyline></svg>