<?xml version="1.0" encoding="utf-8" ?>
<svg baseProfile="full" height="300mm" version="1.1" viewBox="0,0,200,300" width="200mm" xmlns="http://www.w3.org/2000/svg" xmlns:ev="http://www.w3.org/2001/xml-events" xmlns:xlink="http://www.w3.org/1999/xlink"><defs /><rect fill="#222222" height="300" width="200" x="0" y="0" /><text fill="#FFFFFF" style="font-size:12px; font-family:Arial; font-weight:bold;" x="10" y="20">Over 1km Runs</text><text fill="#FFFFFF" style="font-size:4px; font-family:Arial" x="10" y="280">ATHLETE</text><text fill="#FFFFFF" style="font-size:9px; font-family:Arial" x="10" y="290">Ginta</text><text fill="#FFFFFF" style="font-size:4px; font-family:Arial" x="120" y="280">STATISTICS</text><text fill="#FFFFFF" style="font-size:3px; font-family:Arial" x="120" y="285">Number: 3</text><text fill="#FFFFFF" style="font-size:3px; font-family:Arial" x="120" y="290">Weekly: 1.0</text><text fill="#FFFFFF" style="font-size:3px; font-family:Arial" x="141" y="285">Total: 13.3 km</text><text fill="#FFFFFF" style="font-size:3px; font-family:Arial" x="141" y="290">Avg: 4.4 km</text><text fill="#FFFFFF" style="font-size:3px; font-family:Arial" x="167" y="285">Min: 3.2 km</text><text fill="#FFFFFF" style="font-size:3px; font-family:Arial" x="167" y="290">Max: 5.0 km</text><polyline fill="none" points="73.45412843953818,107.34048188687302 68.00458715576679,111.09784083650447 66.51834862306714,112.43975381855853 63.29816513787955,112.17137126112357 60.325688073411584,109.21916184062138 58.83944954071194,107.07209895830601 57.35321100894362,105.46180097665638 53.885321100242436,101.97281960374676 51.90366972517222,100.36251939553767 50.16972476989031,99.28898553247564 46.45412843953818,95.79999831924215 44.47247706446797,93.92131152865477 38.77522935718298,88.82201398769394 37.28899082541466,87.2117080357857 33.077981650829315,84.25947863142937 29.36238532140851,81.3072468622122 27.628440366126597,79.6969376290217 26.389908256940544,78.623397749383 23.665137614123523,76.20793187688105 22.1788990823552,75.13439098116942 20.44495412800461,73.52407905156724 17.72018348518759,70.8402242725715 16.481651376001537,69.49829615093768 14.995412843301892,68.15636754012667 14.5,64.6673508672975 16.97706421930343,61.9834896416869 19.454128440469503,60.10478562163189 21.18807339295745,58.49446712736972 23.912844036705792,55.0054413122125 25.151376145891845,52.85834686132148 29.11467889882624,48.832541396608576 33.077981650829315,44.53834405564703 47.197247706353664,37.8286506976001 48.683486237190664,39.17059034621343 50.16972476989031,40.78091727918945 53.142201834358275,44.001569035695866 57.600917431525886,48.564154209103435 59.08715596422553,50.17447703983635 63.545871558599174,54.7370545740705 68.99541284330189,59.56801286851987 70.72935779765248,61.17833089292981 74.44495412893593,64.39896483300254 77.41743119247258,67.61959595931694 78.65596330258995,69.76668181433342 79.89449541270733,71.37699538446032 82.8669724771753,74.59762041596696 84.60091743152589,75.93954668240622 88.8119266051799,81.03886203933507 90.29816513787955,83.18594007985666 93.51834862399846,87.2117080357857 91.04128440376371,93.65292762336321 89.05963302683085,95.26323076244444 87.32568807341158,96.33676579780877 84.60091743152589,98.48383493046276 78.40825688000768,103.85150229232386 76.42660550400615,105.19341791141778 72.21559633035213,108.4140134062618 68.00458715576679,111.09784083650447 59.33486238587648,107.87724768533371 57.10550458729267,105.46180097665638 53.63761467859149,101.97281960374676 50.66513761412352,99.28898553247564 49.178899083286524,97.94706776412204 47.69266055058688,96.33676579780877 43.97706422023475,92.84777579037473 41.995412844233215,90.70070337597281 38.279816512949765,87.2117080357857 29.610091743059456,80.50209233397618 27.380733945406973,79.16016772785224 26.389908256940544,78.08662769175135 23.417431191541255,75.67116146814078 17.96788990776986,70.57183868763968 16.729357797652483,69.22991046728566 16.97706421930343,61.71510341204703 19.206422017887235,59.56801286851987 23.665137614123523,54.46866781706922 27.876146788708866,50.17447703983635 29.610091743059456,48.29576700273901 32.83027522917837,45.07511899690144 34.56422018352896,43.1964063604828 36.29816513694823,41.58608048246242 46.94954128470272,37.8286506976001 49.92201834823936,40.78091727918945 51.408256880007684,42.39124350948259 52.894495411776006,44.001569035695866 55.86697247624397,47.222217980073765 61.31651376094669,52.05318612023257 64.78440366964787,55.81060140929185 70.23394495435059,60.90994460484944 72.21559633035213,62.25187585223466 75.43577981647104,66.00928074773401 76.42660550400615,67.08282430050895 78.16055045928806,69.22991046728566 81.62844036705792,73.2556936617475 83.11467889975756,74.59762041596696 86.58256880752742,78.623397749383 88.06880734022707,80.77047719620168 91.78440366964787,84.52786321984604 93.2706422014162,86.4065547962673 91.04128440376371,93.65292762336321 89.05963302683085,95.26323076244444 87.07798165176064,96.33676579780877 79.64678899105638,103.04635268589482 75.93119266070426,105.73018402303569 73.9495412837714,107.34048188687302 69.73853211011738,110.29269281239249 63.29816513787955,112.43975381855853 61.81192660611123,110.82945818058215 58.34403669741005,107.07209895830601 56.610091742128134,105.19341791141778 52.894495411776006,101.43605294590816 50.91284403577447,99.55736902775243 47.197247706353664,96.06838206783868 45.215596329420805,94.45807928056456 43.72935779765248,92.57939180661924 40.2614678889513,89.62716670008376 38.77522935718298,88.01686109951697 34.56422018352896,84.79624778940342 32.08715596329421,83.45432474697009 28.866972477175295,80.50209233397618 27.876146788708866,79.42855268809944 26.63761467859149,78.35501273046248 23.417431191541255,75.40277623408474 21.18807339295745,73.52407905156724 19.701834861189127,72.18215190642513 15.490825686603785,68.15636754012667 17.96788990776986,61.17833089292981 19.701834861189127,59.2996264626272 24.408256880939007,54.2002810400445 31.83944954071194,46.14866864471696 36.79357798118144,40.78091727918945 38.279816512949765,38.902202455326915 45.71100917365402,36.75509862671606 47.197247706353664,38.09703866625205 50.16972476989031,41.04930503317155 51.65596330258995,42.659631146583706 52.894495411776006,44.269956555450335 55.86697247624397,46.95383067545481 58.59174311812967,49.637702841544524 64.04128440283239,55.54221472959034 65.77522935718298,57.15253451257013 67.50917431246489,58.76285359240137 75.68348623812199,65.74089481099509 78.40825688000768,69.76668181433342 83.61009174305946,75.40277623408474 85.34403669741005,77.2814724596683 88.8119266051799,81.03886203933507 90.5458715595305,83.18594007985666 90.5458715595305,93.92131152865477 89.05963302683085,95.26323076244444 87.07798165176064,96.33676579780877 81.1330275228247,101.43605294590816 79.64678899105638,102.77796944463626 77.66513761412352,104.11988545511849 73.45412843953818,107.60886479634792 71.72018348705024,108.68239623680711 70.23394495435059,110.29269281239249 66.2706422014162,113.24490137351677 63.29816513787955,112.17137126112357 61.56422018446028,110.29269281239249 57.84862385317683,106.53533304319717 55.86697247624397,104.65665172226727 52.399082568474114,101.16766958800144 50.66513761412352,99.55736902775243 46.94954128470272,95.79999831924215 44.96788990870118,93.92131152865477 41.5,90.43231923668645 33.821100916713476,83.99109402229078 27.628440366126597,79.42855268809944 26.142201834358275,78.35501273046248 24.408256880939007,76.74470220762305 20.940366972237825,73.79246442159638 19.206422017887235,72.45053737447597 17.72018348518759,70.8402242725715 18.215596329420805,60.10478562163189 19.949541283771396,58.49446712736972 21.68348623905331,56.88414793089032 24.9036697242409,53.39512059162371 28.371559632010758,49.369315712247044 29.857798164710402,48.027379776351154 31.591743119992316,46.41705600754358 34.811926605179906,42.659631146583706 37.78440366964787,39.43897821684368 39.27064220234752,37.8286506976001 46.94954128470272,37.8286506976001 48.683486237190664,39.70736606861465 50.16972476989031,41.31769276713021 52.894495411776006,43.733181497314945 53.885321100242436,45.34350643819198 55.61926605459303,46.95383067545481 58.83944954071194,50.442864110227674 64.04128440283239,55.81060140929185 68.00458715576679,58.76285359240137 69.49082568846643,60.10478562163189 71.47247706353664,61.71510341204703 74.69266055058688,64.6673508672975 75.93119266070426,66.27766666514799 80.38990825694054,72.18215190642513 81.87614678777754,74.06084977276623 83.11467889975756,75.67116146814078 86.08715596236289,79.16016772785224 87.8211009176448,81.03886203933507 91.04128440376371,84.25947863142937 92.52752293553203,86.13817034428939 94.01376146730036,88.01686109951697 91.53669724799693,93.38454369874671 89.30733944941312,94.72646312741563 88.31651376094669,95.79999831924215 84.60091743152589,98.48383493046276 80.63761467859149,101.43605294590816 78.90366972517222,103.04635268589482 76.92201834917068,104.38826859835535 72.95871559623629,107.07209895830601 71.2247706418857,108.68239623680711 69.73853211011738,110.5610755062662 66.02293577976525,113.24490137351677 63.05045871529728,112.17137126112357 61.31651376094669,110.5610755062662 58.59174311812967,106.26695005549118 54.62844036705792,103.04635268589482 52.399082568474114,101.70443628472276 48.93119265977293,98.48383493046276 47.197247706353664,97.14191686850972 45.71100917365402,95.26323076244444 40.50917431153357,90.70070337597281 39.02293577976525,88.82201398769394 35.3073394484818,85.3330168700777 33.077981650829315,84.25947863142937 29.610091743059456,81.57563166646287 28.371559632010758,80.23370745196007 26.63761467859149,78.623397749383 23.16972477082163,75.67116146814078 19.701834861189127,72.7189228227362 18.215596329420805,71.37699538446032 16.729357797652483,69.49829615093768 17.72018348518759,60.90994460484944 24.160550458356738,54.2002810400445 25.64678899012506,52.58995996764861 26.885321100242436,50.979638191871345 30.10550458729267,47.75899253040552 33.077981650829315,44.80673153582029 34.811926605179906,42.92801876296289 37.536697247065604,39.70736606861465 46.70183486212045,38.09703866625205 48.18807339388877,39.43897821684368 49.42660550493747,41.04930503317155 52.64678899105638,44.269956555450335 54.133027522824705,45.61189385969192 55.86697247624397,47.222217980073765 61.068807339295745,52.58995996764861 62.55504587199539,54.2002810400445 69.49082568846643,60.37317196908407 73.20642201788723,63.32542049884796 74.69266055058688,64.6673508672975 76.17889908142388,66.54605256277137 78.65596330258995,70.8402242725715 81.87614678777754,74.32923510391265 83.11467889975756,75.93954668240622 84.60091743152589,77.54985755705275 87.57339449506253,81.03886203933507 89.55504587199539,82.91755539295264 92.52752293553203,86.67493922892027 93.76605504658073,88.01686109951697 95.5,90.43231923668645 89.30733944941312,94.99484695470892 87.57339449506253,96.33676579780877 77.41743119247258,103.85150229232386 73.45412843953818,106.80371601041406 71.72018348705024,108.14563055546023 68.25229357834905,111.09784083650447 63.79357798118144,112.70813635620289 62.059633027762175,111.36622347170487 60.325688073411584,109.21916184062138 54.38073394447565,103.31473590736277 52.64678899105638,101.43605294590816 48.683486237190664,97.94706776412204 46.94954128470272,96.06838206783868 43.72935779765248,93.11615975457244 40.50917431153357,90.16393507714383 39.27064220234752,89.09039824455976" stroke="#4dd2ff" stroke-linecap="round" stroke-linejoin="round" stroke-width="0.5"><title>2023-07-25 5.0km</title></polyline><polyline fill="none" points="144.2358490563929,103.28816805547103 135.83018867857754,96.38868619455025 133.79245282988995,93.62888993485831 129.20754716917872,89.21321174083278 126.15094339568168,87.00537071516737 120.54716981109232,82.58968480816111 118.76415094360709,80.38183992588893 114.43396226409823,76.79408925026655 112.39622641447932,75.41418423969299 108.32075471710414,71.55044754012488 105.51886792480946,62.719034584006295 106.53773584868759,60.78716025711037 110.10377358552068,57.19939104001969 111.63207547087222,55.81947889830917 117.23584905732423,49.7478595089633 118.50943396240473,47.81597857293673 121.82075471617281,44.5041803936474 126.66037735808641,39.536477699643 128.69811320770532,36.77664005686529 135.32075471710414,34.844752511009574 142.9622641503811,42.57229678588919 151.6226415084675,50.575808179797605 157.7358490563929,56.92340865149163 162.57547169737518,61.61510651768185 165.63207547087222,65.47885334258899 172.76415094267577,73.48231638222933 174.54716981109232,75.13820317783393 185.5,90.8690916665364 183.4622641503811,92.52497086836956 177.8584905648604,96.94064520555548 175.82075471617281,99.14848044584505 170.72641509398818,103.28816805547103 167.9245283016935,105.22002072678879 162.57547169737518,109.91165883094072 157.99056603759527,113.22339987987652 153.15094339568168,109.6356802796945 148.82075471617281,106.59991488978267 146.52830188535154,104.66806292161345 142.198113206774,101.35631440021098 127.16981132049114,87.8333112502005 121.31132075469941,83.14164582733065 119.27358490601182,81.48576252697967 114.43396226409823,77.07007019175217 112.650943396613,75.6901652822271 108.5754716983065,71.82642886321992 106.28301886748523,69.6185777138453 105.7735849050805,62.44305259734392 111.3773584915325,56.095461366465315 112.90566037781537,54.43956625438295 116.21698113158345,51.12777386046946 120.80188679229468,44.228197081247345 125.89622641541064,38.98451033164747 135.57547169737518,35.672704436816275 139.14150943234563,38.70852661761455 140.9245283016935,40.08844498661347 144.99999999906868,43.67623039660975 146.78301886748523,45.608113441150635 153.40566037688404,52.50768770975992 155.18867924436927,54.43956625438295 158.5,57.75135575560853 162.57547169737518,61.89108856441453 165.8867924520746,65.75483510782942 167.41509433742613,67.68670690315776 171.99999999906868,72.37839145027101 183.4622641503811,86.1774299996905 180.91509433928877,95.00878831534646 178.6226415084675,96.66466570971534 174.0377358486876,100.52837681747042 171.99999999906868,102.46023089508526 167.6698113195598,105.77197845256887 164.61320754606277,107.70382985821925 160.79245282895863,111.29155128635466 156.20754716917872,113.22339987987652 154.16981132049114,111.29155128635466 152.3867924530059,109.6356802796945 140.6698113195598,99.97641832893714 136.0849056597799,96.38868619455025 132.7735849050805,92.52497086836956 128.95283018890768,88.93723168317229 126.40566037688404,87.55733109219 118.76415094360709,81.209781907266 116.98113207519054,79.27791700209491 111.12264150939882,73.75829756469466 105.26415094360709,68.2386700923089 104.5,64.65090792579576 107.30188679229468,60.78716025711037 109.08490566071123,58.57930267928168 115.96226415131241,50.851791030494496 120.54716981109232,45.05614695721306 126.15094339568168,38.98451033164747 127.93396226409823,37.052623911295086 137.6132075469941,37.052623911295086 139.650943396613,38.43254288309254 141.17924528196454,40.36442860006355 143.98113207519054,43.40024702367373 145.50943396240473,45.05614695721306 147.54716981109232,46.98802929976955 151.6226415084675,51.40375667018816 158.2452830178663,58.303320391336456 160.02830188535154,59.959213816560805 163.33962264098227,63.27099849609658 174.80188679136336,75.96614630450495 176.83962264098227,77.89801289653406 180.15094339568168,82.03772370750085 182.95283018704504,85.62546942173503 185.2452830178663,87.55733109219 171.7452830178663,102.73620996833779 169.7075471682474,104.39208398829214 165.8867924520746,107.70382985821925 163.849056603387,108.80774450488389 155.698113206774,112.94742156914435 148.82075471617281,106.59991488978267 143.98113207519054,104.11610503518023 139.14150943234563,99.97641832893714 137.6132075469941,98.04456298588775 129.4622641513124,90.8690916665364 126.15094339568168,87.55733109219 121.5660377368331,83.96958720637485 119.78301886748523,82.58968480816111 114.68867924530059,77.34605111298151 113.16037735808641,75.6901652822271 111.12264150939882,74.03427872760221 109.08490566071123,58.85528494673781 110.35849056579173,57.19939104001969 111.3773584915325,55.81947889830917 114.94339622557163,51.95572223025374 118.0,47.81597857293673 119.52830188721418,45.884096652967855 125.13207547180355,40.36442860006355 126.66037735808641,38.43254288309254 129.97169811278582,35.3967204822693 136.33962264098227,35.672704436816275 139.650943396613,38.98451033164747 140.9245283016935,40.36442860006355 144.99999999906868,45.33213020977564 152.64150943327695,52.78367041912861 156.71698113065213,56.371443815063685 160.2830188665539,59.683231628965586 161.55660377256572,60.78716025711037 165.63207547087222,66.03081685304642 167.1603773580864,67.68670690315776 168.68867924436927,69.34259622963145 175.82075471617281,77.34605111298151 177.349056603387,79.27791700209491 184.22641509305686,87.00537071516737 181.1698113195598,95.00878831534646 177.60377358272672,98.04456298588775 174.80188679136336,100.25239758356474 171.23584905546159,103.56414706865326 169.45283018890768,104.66806292161345 165.1226415084675,107.97980854962952 163.33962264098227,109.91165883094072 156.4622641503811,115.15524748899043 154.9339622631669,113.22339987987652 150.8584905648604,109.91165883094072 142.9622641503811,103.01218902226537 139.14150943234563,99.14848044584505 134.04716981109232,94.18084934726357 131.75471698027104,92.52497086836956 127.67924528196454,89.48919177846983 125.64150943327695,87.8333112502005 121.5660377368331,84.24556762562133 120.03773584961891,82.31370426737703 111.63207547087222,74.86222209548578 107.55660377349705,71.27446619630791 106.28301886748523,69.89455917757004 108.32075471710414,58.85528494673781 112.14150943327695,55.54349640966393 113.9245283016935,53.6116184273269 115.45283018890768,51.95572223025374 119.01886792387813,47.26401241123676 123.85849056579173,42.020329859806225 125.38679245207459,39.81246135290712 129.20754716917872,35.672704436816275 137.6132075469941,37.60459156008437 139.39622641447932,39.26049402542412 144.49056603759527,43.95221374882385 148.82075471617281,48.91991065721959 152.89622641447932,52.2317049796693 154.67924528196454,54.163583665154874 158.2452830178663,57.75135575560853 161.30188679229468,61.33912445115857 162.57547169737518,62.99501654994674 164.61320754606277,65.20287155685946 173.52830188535154,74.03427872760221 175.3113207546994,75.6901652822271 176.5849056597799,77.62203201511875 180.40566037595272,81.76174312760122 184.99056603573263,87.28135091392323 181.1698113195598,94.7328086795751 179.3867924520746,96.66466570971534 172.76415094267577,101.90827268804424 170.4716981118545,103.84012606204487 164.61320754606277,108.80774450488389 162.32075471617281,110.4636158735957 158.5,113.4993781701196 155.18867924436927,113.77535643987358 146.52830188535154,107.15187241393141 144.99999999906868,105.49599959957413 143.4716981118545,103.84012606204487 139.14150943234563,99.97641832893714 137.6132075469941,98.32054238137789 134.30188679229468,95.28476793132722 132.2641509436071,93.90486965118907 125.89622641541064,88.10929138888605 123.85849056579173,86.45341025828384 120.03773584961891,83.14164582733065" stroke="#4dd2ff" stroke-linecap="round" stroke-linejoin="round" stroke-width="0.5"><title>2023-04-12 5.0km</title></polyline><polyline fill="none" points="23.719512194395065,231.4215897731483 30.963414635509253,234.98912881314754 42.81707317009568,238.55666655302048 66.52439024671912,238.55666655302048 72.45121951401234,233.5621133511886 76.40243902429938,230.7080818079412 54.6707317084074,214.29738430771977 39.52439024299383,221.4324735533446 17.134146343916655,229.2810657247901 23.719512194395065,232.1350976843387 42.158536586910486,238.55666655302048 65.86585365980864,240.69718857482076 69.1585365831852,235.70263646449894 76.40243902429938,227.1405412107706 56.64634146541357,211.44334715604782 52.695121951401234,215.0108934668824 42.81707317009568,218.578438478522 37.548780489712954,219.29194732476026 21.743902441114187,217.15142063051462 16.47560975700617,227.85404943488538 20.426829267293215,230.7080818079412 27.012195125222206,233.5621133511886 38.20731707662344,237.8431591084227 43.47560975700617,238.55666655302048 51.37804878130555,242.1242029964924 70.47560975700617,239.2701739454642 73.76829268410802,234.27562110684812 77.06097561120987,229.994573793374 72.45121951401234,208.58930917363614 56.64634146541357,210.72983773984015 42.158536586910486,217.15142063051462 36.89024390280247,217.15142063051462 25.695121951401234,215.0108934668824 19.76829268410802,228.56755760591477 34.2560975626111,235.70263646449894 42.81707317009568,239.2701739454642 46.10975609719753,240.69718857482076 69.1585365831852,239.98368128668517 73.76829268410802,235.70263646449894 78.37804878130555,231.4215897731483 71.13414634019136,210.01632826868445 57.304878048598766,210.01632826868445 53.35365853831172,213.58387509919703 43.47560975700617,217.15142063051462 38.865853659808636,218.578438478522 23.719512194395065,215.72440257389098 23.06097561120987,229.994573793374 32.280487805604935,234.27562110684812 40.841463413089514,238.55666655302048 45.45121951401234,239.2701739454642 54.6707317084074,242.83771013002843 68.5,239.98368128668517 72.45121951401234,235.70263646449894 76.40243902429938,232.1350976843387 57.96341463178396,211.44334715604782 53.35365853831172,215.0108934668824 44.134146340191364,217.864929581061 38.865853659808636,217.864929581061 33.59756097570062,218.578438478522 17.79268292710185,228.56755760591477 22.402439024299383,231.4215897731483 27.670731708407402,234.27562110684812 36.89024390280247,237.1296516135335 41.5,238.55666655302048 47.426829271018505,239.98368128668517 66.52439024671912,239.98368128668517 70.47560975700617,235.70263646449894 57.304878048598766,212.15685652196407 49.40243902429938,215.72440257389098 37.548780489712954,214.29738430771977 32.280487805604935,213.58387509919703 26.35365853831172,212.87036583665758 14.5,214.29738430771977 21.0853658542037,227.85404943488538 30.304878048598766,232.84860554430634 43.47560975700617,238.55666655302048 54.012195121496916,242.83771013002843 67.8414634168148,242.1242029964924 71.13414634019136,238.55666655302048 74.42682926729321,234.27562110684812 60.59756097570062,209.30281874723732 54.012195121496916,213.58387509919703 42.81707317009568,215.0108934668824 36.23170731961727,214.29738430771977 25.695121951401234,212.87036583665758 19.76829268410802,229.2810657247901 23.719512194395065,230.7080818079412 28.987804882228374,232.84860554430634 32.93902438879013,235.70263646449894 63.23170731961727,239.98368128668517 67.18292682990432,236.4161440646276 71.13414634019136,233.5621133511886 71.13414634019136,209.30281874723732 44.79268292710185,217.864929581061 17.79268292710185,228.56755760591477 25.695121951401234,233.5621133511886 34.9146341457963,237.1296516135335 41.5,237.8431591084227 52.695121951401234,242.83771013002843 66.52439024671912,238.55666655302048 69.81707317009568,234.98912881314754 73.10975609719753,232.1350976843387 72.45121951401234,211.44334715604782 58.62195121869445,209.30281874723732 55.987804878503084,212.15685652196407 40.841463413089514,217.864929581061 34.9146341457963,217.864929581061 24.37804878130555,215.72440257389098 27.012195125222206,232.84860554430634 31.62195122241974,236.4161440646276 42.158536586910486,239.98368128668517 51.37804878130555,242.83771013002843 70.47560975700617,233.5621133511886 75.0853658542037,229.994573793374 73.76829268410802,211.44334715604782 69.81707317009568,208.58930917363614 60.59756097570062,209.30281874723732 42.158536586910486,217.864929581061 35.573170732706785,216.43791162781417 26.35365853831172,215.0108934668824 15.817073173820972,216.43791162781417 21.743902441114187,228.56755760591477 29.64634146168828,234.27562110684812 38.865853659808636,237.8431591084227 43.47560975700617,238.55666655302048 66.52439024671912,238.55666655302048 70.47560975700617,235.70263646449894 75.74390244111419,231.4215897731483 71.13414634019136,212.15685652196407 55.987804878503084,210.72983773984015 58.62195121869445,209.30281874723732 74.42682926729321,212.87036583665758 79.69512195140123,214.29738430771977 82.3292682915926,215.0108934668824 83.64634146541357,215.72440257389098 85.62195121869445,220.71896486356854 86.28048780560493,222.14598219282925 86.93902439251542,222.14598219282925 88.25609755888581,219.29194732476026 90.89024390280247,217.15142063051462 91.54878048598766,218.578438478522 91.54878048598766,218.578438478522 91.54878048598766,217.864929581061 89.57317073270679,216.43791162781417 90.23170731589198,217.15142063051462 92.20731707289815,218.578438478522 90.23170731589198,218.578438478522 90.89024390280247,217.864929581061 91.54878048598766,217.15142063051462 90.89024390280247,215.72440257389098 90.23170731589198,213.58387509919703 90.23170731589198,212.87036583665758 90.23170731589198,216.43791162781417 95.5,207.16228986997157" stroke="#4dd2ff" stroke-linecap="round" stroke-linejoin="round" stroke-width="0.5"><title>2021-05-19 3.2km</title></polyline></svg>