<?xml version="1.0" encoding="utf-8" ?>
<svg baseProfile="full" height="300mm" version="1.1" viewBox="0,0,200,300" width="200mm" xmlns="http://www.w3.org/2000/svg" xmlns:ev="http://www.w3.org/2001/xml-events" xmlns:xlink="http://www.w3.org/1999/xlink"><defs /><rect fill="#222222" height="300" width="200" x="0" y="0" /><text fill="#FFFFFF" style="font-size:12px; font-family:Arial; font-weight:bold;" x="10" y="20">Over 1km Runs</text><text fill="#FFFFFF" style="font-size:4px; font-family:Arial" x="10" y="280">ATHLETE</text><text fill="#FFFFFF" style="font-size:9px; font-family:Arial" x="10" y="290">Ginta</text><text fill="#FFFFFF" style="font-size:4px; font-family:Arial" x="120" y="280">STATISTICS</text><text fill="#FFFFFF" style="font-size:3px; font-family:Arial" x="120" y="285">Number: 2</text><text fill="#FFFFFF" style="font-size:3px; font-family:Arial" x="120" y="290">Weekly: 1.0</text><text fill="#FFFFFF" style="font-size:3px; font-family:Arial" x="141" y="285">Total: 8.2 km</text><text fill="#FFFFFF" style="font-size:3px; font-family:Arial" x="141" y="290">Avg: 4.1 km</text><text fill="#FFFFFF" style="font-size:3px; font-family:Arial" x="167" y="285">Min: 3.2 km</text><text fill="#FFFFFF" style="font-size:3px; font-family:Arial" x="167" y="290">Max: 5.0 km</text><polyline fill="none" points="98.98113207519054,127.71755740744993 87.77358490601182,118.51824825955555 85.05660377442837,114.83851991314441 78.94339622557163,108.95094898762181 74.86792452819645,106.00716095371172 67.39622641541064,100.11957974405959 65.01886792480946,97.1757865678519 59.245283018797636,92.39211900020018 56.52830188535154,90.55224565276876 51.09433962404728,85.4005967201665 47.35849056765437,73.62537944549695 48.71698113158345,71.04954700963572 53.471698112785816,66.26585472002625 55.50943396240473,64.42597186425701 62.98113207705319,56.3304793452844 64.67924528382719,53.75463809724897 69.09433962218463,49.33890719152987 75.547169810161,42.71530359936878 78.26415094360709,39.035520075820386 87.09433962404728,36.45967001467943 97.2830188665539,46.76306238118559 108.83018867857754,57.434410906396806 116.98113207519054,65.89787820214406 123.4339622631669,72.15347535675392 127.50943396240473,77.30513779027387 137.0188679229468,87.97642184281722 139.39622641541064,90.1842709039338 154.0,111.15878888871521 151.2830188665539,113.36662782449275 143.8113207537681,119.25419360771775 141.09433962218463,122.19797392794862 134.30188679136336,127.71755740744993 130.56603773497045,130.29336096905172 123.4339622631669,136.54887844109908 117.32075471617281,140.96453317347914 110.86792452819645,136.18090703943744 105.09433962218463,132.13321985304356 102.03773584775627,129.55741722881794 96.26415094174445,125.14175253361464 76.22641509398818,107.11108166724443 68.4150943402201,100.8555277697742 65.69811320863664,98.64768336946145 59.245283018797636,92.76009358884767 56.867924528196454,90.92022037645802 51.43396226502955,85.76857181778178 48.37735849060118,82.82477028481662 47.698113206773996,73.25740346312523 55.16981132142246,64.79394848877564 57.20754717104137,62.58608833933249 61.62264150939882,58.170365147292614 67.73584905639291,48.97092944197357 74.52830188721418,41.979347108863294 87.4339622631669,37.56360591575503 92.18867924436927,41.61136882333085 94.56603773497045,43.45125998230651 99.99999999813735,48.2349738618359 102.37735849060118,50.81081792153418 111.20754716917872,60.010250279679894 113.58490565791726,62.58608833933249 118.0,67.00180767429993 123.4339622631669,72.52145141921937 127.849056603387,77.67311347695068 129.88679245114326,80.2489425376989 135.99999999813735,86.5045219338499 151.2830188665539,104.90323999989778 147.88679245114326,116.67838442046195 144.83018867857754,118.88622094644234 138.71698113158345,124.03783575678244 135.99999999813735,126.61364119360223 130.22641509212554,131.02930460358039 126.15094339475036,133.60510647762567 121.05660377256572,138.38873504847288 114.94339622557163,140.96453317347914 112.22641509398818,138.38873504847288 109.849056603387,136.18090703943744 94.22641509212554,123.30189110524952 88.11320754699409,118.51824825955555 83.698113206774,113.36662782449275 78.60377358458936,108.58297557756305 75.20754716917872,106.74310812307522 65.01886792480946,98.27970920968801 62.641509434208274,95.70388933597133 54.83018867857754,88.34439675277099 47.018867924809456,80.98489345656708 46.0,76.20121056772768 49.73584905639291,71.04954700963572 52.11320754699409,68.10573690570891 61.28301886841655,57.80238804081455 67.39622641541064,50.07486260961741 74.86792452819645,41.979347108863294 77.24528301879764,39.40349854854867 90.150943396613,39.40349854854867 92.86792452819645,41.24339051079005 94.90566037595272,43.81923813326284 98.64150943420827,47.86699603172019 100.67924528382719,50.07486260961741 103.39622641541064,52.65070573287085 108.83018867857754,58.538342226762325 117.66037735715508,67.73776052193716 120.03773584775627,69.9456184222363 124.45283018797636,74.361331328284 139.73584905453026,91.28819507267326 142.45283018797636,93.8640171950683 146.86792452819645,99.38363161031157 150.60377358272672,104.16729256231338 153.66037735715508,106.74310812307522 135.66037735715508,126.98161329096183 132.943396223709,129.18944531772286 127.849056603387,133.60510647762567 125.13207547180355,135.07699267333373 114.26415094174445,140.59656209219247 105.09433962218463,132.13321985304356 98.64150943420827,128.82147338008508 92.18867924436927,123.30189110524952 90.150943396613,120.72608398087323 79.28301886841655,111.15878888871521 74.86792452819645,106.74310812307522 68.75471698120236,101.95944960881025 66.37735849060118,100.11957974405959 59.584905659779906,93.12806815095246 57.547169810160995,90.92022037645802 54.83018867857754,88.71237163664773 52.11320754699409,68.4737132624723 53.811320753768086,66.26585472002625 55.16981132142246,64.42597186425701 59.92452830076218,59.27429630700499 64.0,53.75463809724897 66.03773584961891,51.178795537445694 73.50943396240473,43.81923813326284 75.547169810161,41.24339051079005 79.96226415038109,37.19562730984762 88.45283018797636,37.56360591575503 92.86792452819645,41.979347108863294 94.56603773497045,43.81923813326284 99.99999999813735,50.442840279545635 110.18867924436927,60.378227225504816 115.62264150753617,65.16192508675158 120.37735848873854,69.57764217210934 122.07547169737518,71.04954700963572 127.50943396240473,78.04108913708478 129.547169810161,80.2489425376989 131.58490565791726,82.45679497299716 141.09433962218463,93.12806815095246 143.13207547180355,95.70388933597133 152.3018867895007,106.00716095371172 148.22641509212554,116.67838442046195 143.47169811092317,120.72608398087323 139.73584905453026,123.66986344475299 134.9811320733279,128.08552942518145 132.60377358458936,129.55741722881794 126.83018867857754,133.97307806648314 124.45283018797636,136.54887844109908 115.2830188665539,143.54032998532057 113.24528301693499,140.96453317347914 107.81132075376809,136.54887844109908 97.2830188665539,127.34958536317572 92.18867924436927,122.19797392794862 85.39622641541064,115.57446579635143 82.33962264098227,113.36662782449275 76.90566037595272,109.31892237113789 74.18867924436927,107.11108166724443 68.75471698120236,102.32742350082844 66.7169811334461,99.75160568999127 55.50943396240473,89.81629612762481 50.07547169923782,85.03262159507722 48.37735849060118,83.1927455700934 51.09433962404728,68.4737132624723 56.18867924436927,64.05799521273002 58.56603773497045,61.48215790325776 60.60377358458936,59.27429630700499 65.35849056579173,53.01868321513757 71.81132075376809,46.02710647974163 73.849056603387,43.08328180387616 78.94339622557163,37.56360591575503 90.150943396613,40.13945541344583 92.52830188535154,42.347325367387384 99.32075471617281,48.60295166494325 105.09433962218463,55.22654754295945 110.52830188535154,59.64227330638096 112.90566037595272,62.21811155369505 117.66037735715508,67.00180767429993 121.73584905639291,71.78549926821142 123.4339622631669,73.99335539992899 126.15094339475036,76.9371620756574 138.03773584775627,88.71237163664773 140.4150943402201,90.92022037645802 142.1132075469941,93.49604268698022 147.20754716917872,99.01565750315785 153.32075471431017,106.37513455189764 148.22641509212554,116.31041157292202 145.849056603387,118.88622094644234 137.0188679229468,125.87769691739231 133.96226414851844,128.45350141637027 126.15094339475036,135.07699267333373 123.09433962218463,137.28482116479427 118.0,141.33250422682613 113.58490565791726,141.70047525316477 102.03773584775627,132.86916321842 99.99999999813735,130.6613327995874 97.96226414851844,128.45350141637027 92.18867924436927,123.30189110524952 90.150943396613,121.09405650850385 85.73584905639291,117.04635724192485 83.01886792480946,115.2064928682521 74.52830188721418,107.47905518533662 71.81132075376809,105.27121367771178 66.7169811334461,100.8555277697742" stroke="#4dd2ff" stroke-linecap="round" stroke-linejoin="round" stroke-width="0.5"><title>2023-04-12 5.0km</title></polyline><polyline fill="none" points="58.29268292710185,218.56211969722062 67.95121951773763,223.31883841659874 83.75609755888581,228.07555540464818 115.36585365980864,228.07555540464818 123.26829268410802,221.41615113522857 128.53658536449075,217.61077574454248 99.56097561120987,195.72984574455768 79.36585365980864,205.24329807050526 49.512195125222206,215.7080876333639 58.29268292710185,219.51346357818693 82.87804878503084,228.07555540464818 114.48780487850308,230.9295847658068 118.87804877758026,224.27018195204437 128.53658536449075,212.8540549473837 102.19512195140123,191.9244628753513 96.92682926729321,196.68119128979743 83.75609755888581,201.43791797198355 76.73170731961727,202.38926309999079 55.658536586910486,199.53522750735283 48.634146343916655,213.80539924651384 53.90243902429938,217.61077574454248 62.68292683362961,221.41615113522857 77.60975610092282,227.12421214487404 84.63414634391665,228.07555540464818 95.1707317084074,232.8322706623003 120.63414634019136,229.02689859457314 125.02439024671912,222.36749480944127 129.4146341457963,216.6594317248091 123.26829268410802,188.1190788988024 102.19512195140123,190.97311698645353 82.87804878503084,199.53522750735283 75.85365853831172,199.53522750735283 60.926829271018505,196.68119128979743 53.02439024671912,214.75674347486347 72.3414634168148,224.27018195204437 83.75609755888581,229.02689859457314 88.14634146541357,230.9295847658068 118.87804877758026,229.97824171558022 125.02439024671912,224.27018195204437 131.1707317084074,218.56211969722062 121.51219512149692,190.0217710249126 103.07317073270679,190.0217710249126 97.80487805232406,194.7785001322627 84.63414634391665,199.53522750735283 78.48780487850308,201.43791797198355 58.29268292710185,197.6325367661193 57.41463414952159,216.6594317248091 69.70731707662344,222.36749480944127 81.12195121869445,228.07555540464818 87.26829268410802,229.02689859457314 99.56097561120987,233.78361350670457 118.0,229.97824171558022 123.26829268410802,224.27018195204437 128.53658536449075,219.51346357818693 103.95121951028705,191.9244628753513 97.80487805232406,196.68119128979743 85.51219512149692,200.48657277505845 78.48780487850308,200.48657277505845 71.46341463550925,201.43791797198355 50.39024390280247,214.75674347486347 56.53658536449075,218.56211969722062 63.56097561120987,222.36749480944127 75.85365853831172,226.17286881804466 82.0,228.07555540464818 89.90243902802467,229.97824171558022 115.36585365980864,229.97824171558022 120.63414634019136,224.27018195204437 103.07317073270679,192.87580869626254 92.53658536821604,197.6325367661193 76.73170731961727,195.72984574455768 69.70731707662344,194.7785001322627 61.804878048598766,193.82715444918722 46.0,195.72984574455768 54.780487805604935,213.80539924651384 67.07317073270679,220.46480739302933 84.63414634391665,228.07555540464818 98.68292682617903,233.78361350670457 117.12195121869445,232.8322706623003 121.51219512149692,228.07555540464818 125.90243902429938,222.36749480944127 107.46341463550925,189.0704249953851 98.68292682617903,194.7785001322627 83.75609755888581,196.68119128979743 74.97560975700617,195.72984574455768 60.926829271018505,193.82715444918722 53.02439024671912,215.7080876333639 58.29268292710185,217.61077574454248 65.31707317382097,220.46480739302933 70.5853658542037,224.27018195204437 110.97560975700617,229.97824171558022 116.24390244111419,225.22152541950345 121.51219512149692,221.41615113522857 121.51219512149692,189.0704249953851 86.39024390280247,200.48657277505845 50.39024390280247,214.75674347486347 60.926829271018505,221.41615113522857 73.21951219439507,226.17286881804466 82.0,227.12421214487404 96.92682926729321,233.78361350670457 115.36585365980864,228.07555540464818 119.7560975626111,223.31883841659874 124.14634146168828,219.51346357818693 123.26829268410802,191.9244628753513 104.82926829531789,189.0704249953851 101.31707317009568,192.87580869626254 81.12195121869445,200.48657277505845 73.21951219439507,200.48657277505845 59.1707317084074,197.6325367661193 62.68292683362961,220.46480739302933 68.82926829531789,225.22152541950345 82.87804878503084,229.97824171558022 95.1707317084074,233.78361350670457 120.63414634019136,221.41615113522857 126.78048780560493,216.6594317248091 125.02439024671912,191.9244628753513 119.7560975626111,188.1190788988024 107.46341463550925,189.0704249953851 82.87804878503084,200.48657277505845 74.09756097570062,198.58388216979802 61.804878048598766,196.68119128979743 47.75609756633639,198.58388216979802 55.658536586910486,214.75674347486347 66.19512195140123,222.36749480944127 78.48780487850308,227.12421214487404 84.63414634391665,228.07555540464818 115.36585365980864,228.07555540464818 120.63414634019136,224.27018195204437 127.65853658691049,218.56211969722062 121.51219512149692,192.87580869626254 101.31707317009568,190.97311698645353 104.82926829531789,189.0704249953851 125.90243902429938,193.82715444918722 132.92682926729321,195.72984574455768 136.43902438879013,196.68119128979743 138.19512195512652,197.6325367661193 140.8292682915926,204.2919531520456 141.70731707289815,206.19464292377234 142.5853658542037,206.19464292377234 144.3414634130895,202.38926309999079 147.85365853831172,199.53522750735283 148.73170731589198,201.43791797198355 148.73170731589198,201.43791797198355 148.73170731589198,200.48657277505845 146.09756097570062,198.58388216979802 146.97560975700617,199.53522750735283 149.60975609719753,201.43791797198355 146.97560975700617,201.43791797198355 147.85365853831172,200.48657277505845 148.73170731589198,199.53522750735283 147.85365853831172,197.6325367661193 146.97560975700617,194.7785001322627 146.97560975700617,193.82715444918722 146.97560975700617,198.58388216979802 154.0,186.21638649329543" stroke="#4dd2ff" stroke-linecap="round" stroke-linejoin="round" stroke-width="0.5"><title>2021-05-19 3.2km</title></polyline></svg>