<?xml version="1.0" encoding="utf-8" ?>
<svg baseProfile="full" height="200mm" version="1.1" viewBox="0,0,200,200" width="200mm" xmlns="http://www.w3.org/2000/svg" xmlns:ev="http://www.w3.org/2001/xml-events" xmlns:xlink="http://www.w3.org/1999/xlink"><defs /><rect fill="#1a1a1a" height="200" width="200" x="0" y="0" /><text alignment-baseline="middle" fill="#e1ed5e" style="dominant-baseline: central; font-size:9.0px; font-family:Arial;" text-anchor="middle" x="100.0" y="100.0">2024</text><line stroke="#e1ed5e" stroke-width="0.3" x1="100.0" x2="100.0" y1="15.0" y2="10.0" /><path d="M 100.0 14.0 a86.0,86.0 0 0,1 42.35913384403234,11.155469271406648" fill="none" id="id37" stroke="none" /><text fill="#e1ed5e" style="font-size:6.75px; font-family:Arial;" text-anchor="middle"><textPath startOffset="22.145653131862478" xlink:href="#id37">January</textPath></text><path d="M 105.69591212413111 79.78721728523813 l 17.057071830717994 -60.52953050377015 a83.88694429247707,83.88694429247707 0 0,0 1.3826964694639547,0.4024827906266969 l -18.093628312563553 60.227804018840935" fill="#4dd3ff" stroke="none" /><path d="M 106.04205211174951 79.88797359093562 l 18.126156335248517 -60.33607922719316 a84.0,84.0 0 0,0 1.3774374685134794,0.42673364877341324 l -19.15923443663363 60.016028990613094" fill="#4dd2ff" stroke="none" /><path d="M 106.38641147887787 79.99465700312896 l 9.720516441366009 -30.449379304701363 a52.963309276863725,52.963309276863725 0 0,0 0.8637490079169627,0.28393145513757534 l -10.241788186930714 30.27802692816177" fill="#aaff21" stroke="none" /><line stroke="#e1ed5e" stroke-width="0.3" x1="143.13028292997686" x2="145.6673583964461" y1="26.7553504044142" y2="22.446841604673864" /><path d="M 143.63769802327073 25.89364864446614 a86.0,86.0 0 0,1 29.32050498858742,28.57503671076993" fill="none" id="id38" stroke="none" /><text fill="#e1ed5e" style="font-size:6.75px; font-family:Arial;" text-anchor="middle"><textPath startOffset="20.669276256404974" xlink:href="#id38">February</textPath></text><path d="M 115.8921839302757 86.27271002978787 l 23.856628965042272 -20.606787899743075 a52.52425182491555,52.52425182491555 0 0,0 0.5835330237368705,0.6874004346891205 l -24.206856552286254 20.194220682604403" fill="#b0ff20" stroke="none" /><path d="M 116.1254893667686 86.54754324733833 l 24.274655450429112 -20.250780934786544 a52.61254538479561,52.61254538479561 0 0,0 0.5726078378879572,0.6984884574912087 l -24.6187101075557 19.83109019559684" fill="#afff20" stroke="none" /><path d="M 116.35404254752997 86.82634096563983 l 31.7195600746335 -25.55103228627943 a61.73064868404108,61.73064868404108 0 0,0 0.6576770651853543,0.8309534872470489 l -32.153503570460416 25.0027588551177" fill="#40ff2d" stroke="none" /><path d="M 116.57777611688842 87.10902102172516 l 24.97711913799747 -19.422358914461334 a52.6399195042572,52.6399195042572 0 0,0 0.5485782045588167,0.7181064793644327 l -25.306849319910594 18.99073152185602" fill="#afff20" stroke="none" /><path d="M 116.7966241395341 87.39550010848427 l 25.24059973365005 -18.941016597243962 a52.55709087750971,52.55709087750971 0 0,0 0.535326456916603,0.7262731512302706 l -25.56202821015048 18.504937136744818" fill="#b0ff20" stroke="none" /><path d="M 117.01052211995028 87.68569379921539 l 25.610447157145455 -18.539988720406463 a52.61686552050564,52.61686552050564 0 0,0 0.5233747033291968,0.7361920642422879 l -25.92493695900461 18.09761942945467" fill="#afff20" stroke="none" /><path d="M 117.21940702142032 87.97951657250589 l 25.902565099309697 -18.082002133901433 a52.5895818252536,52.5895818252536 0 0,0 0.5103950720274733,0.7446816634296138 l -26.209149908152494 17.63468573540177" fill="#afff20" stroke="none" /><path d="M 117.42321728460499 88.27688183743584 l 21.06044703055938 -14.170408660048372 a46.38391046942475,46.38391046942475 0 0,0 0.4388261636935166,0.6644387424058362 l -21.30059763317362 13.806790039303477" fill="#fffb17" stroke="none" /><path d="M 117.62189284568427 88.57770195909679 l 26.467345595475187 -17.155813645589415 a52.54112117082257,52.54112117082257 0 0,0 0.48408463850926553,0.7610614560578643 l -26.757947925610342 16.698938514852877" fill="#b0ff20" stroke="none" /><path d="M 117.81537515405839 88.88188828441811 l 26.755389052100202 -16.697341588529085 a52.5381048804976,52.5381048804976 0 0,0 0.47092163930055353,0.7692151066623047 l -27.03807865585616 16.235589365742225" fill="#b0ff20" stroke="none" /><line stroke="#e1ed5e" stroke-width="0.3" x1="172.87174338648825" x2="177.1583165268699" y1="56.24261187166439" y2="53.66864786411523" /><path d="M 173.72905801456457 55.72781907015455 a86.0,86.0 0 0,1 12.242430191666344,42.057860355516425" fill="none" id="id39" stroke="none" /><text fill="#e1ed5e" style="font-size:6.75px; font-family:Arial;" text-anchor="middle"><textPath startOffset="22.145653131862474" xlink:href="#id39">March</textPath></text><path d="M 118.00360718960297 89.18935116829356 l 27.127205733293216 -16.289107614914244 a52.642065637165246,52.642065637165246 0 0,0 0.4585532265767564,0.7787236280380619 l -27.402832669999743 15.821032818582626" fill="#afff20" stroke="none" /><line stroke="#e1ed5e" stroke-width="0.3" x1="184.99686870605535" x2="189.99668451229388" y1="99.2704041080226" y2="99.22748670261217" /><path d="M 185.99683186730306 99.26182062694052 a86.0,86.0 0 0,1 -10.086455211305974,41.156179273409016" fill="none" id="id40" stroke="none" /><text fill="#e1ed5e" style="font-size:6.75px; font-family:Arial;" text-anchor="middle"><textPath startOffset="21.40746469413373" xlink:href="#id40">April</textPath></text><line stroke="#e1ed5e" stroke-width="0.3" x1="174.33088141563837" x2="178.70328620479359" y1="141.23008692659167" y2="143.65538615756765" /><path d="M 175.20536237346943 141.71514677278685 a86.0,86.0 0 0,1 -30.301960400862466,31.631185727798858" fill="none" id="id41" stroke="none" /><text fill="#e1ed5e" style="font-size:6.75px; font-family:Arial;" text-anchor="middle"><textPath startOffset="22.145653131862474" xlink:href="#id41">May</textPath></text><path d="M 111.27062007382361 117.71928675628689 l 4.872646469913596 7.660609575770829 a30.078965948452122,30.078965948452122 0 0,0 -0.4380584169499693,0.27338085083721597 l -4.7404239241739115 -7.743126223449592" fill="#ff0000" stroke="none" /><line stroke="#e1ed5e" stroke-width="0.3" x1="143.1302829299769" x2="145.66735839644613" y1="173.24464959558577" y2="177.55315839532614" /><path d="M 143.63769802327073 174.10635135553383 a86.0,86.0 0 0,1 -40.68552437913181,11.842963189579606" fill="none" id="id42" stroke="none" /><text fill="#e1ed5e" style="font-size:6.75px; font-family:Arial;" text-anchor="middle"><textPath startOffset="21.407464694133747" xlink:href="#id42">June</textPath></text><line stroke="#e1ed5e" stroke-width="0.3" x1="101.45913802915013" x2="101.54496967792366" y1="184.9874750549273" y2="189.98673829345242" /><path d="M 101.47630435890484 185.9873277026323 a86.0,86.0 0 0,1 -42.54439059252881,-10.42667462771756" fill="none" id="id43" stroke="none" /><text fill="#e1ed5e" style="font-size:6.75px; font-family:Arial;" text-anchor="middle"><textPath startOffset="22.145653131862474" xlink:href="#id43">July</textPath></text><path d="M 91.92203290615298 119.3841803445677 l -4.2474302647245645 10.192286412643202 a32.04189142181037,32.04189142181037 0 0,0 -0.5059032057461791,-0.21593999566890731 l 4.421768545641175 -10.11787176731489" fill="#ff2103" stroke="none" /><path d="M 90.6110303473126 118.78422872680471 l -8.420379923060086 16.846400435012796 a39.833587169349144,39.833587169349144 0 0,0 -0.6090228810274824,-0.3109714225124632 l 8.708330025801152 -16.699371060827495" fill="#ff9c0e" stroke="none" /><path d="M 89.97174638481275 118.45085714620012 l -7.476833079346654 13.756530732737426 a36.657112463579026,36.657112463579026 0 0,0 -0.5503032261694598,-0.3052439231021554 l 7.711880493672216 -13.626153894202123" fill="#ff6b09" stroke="none" /><line stroke="#e1ed5e" stroke-width="0.3" x1="58.13341422392154" x2="55.67067388415222" y1="173.97424548756322" y2="178.32567169271397" /><path d="M 57.64086615596768 174.84453072859336 a86.0,86.0 0 0,1 -31.369924170532247,-30.572349798747897" fill="none" id="id44" stroke="none" /><text fill="#e1ed5e" style="font-size:6.75px; font-family:Arial;" text-anchor="middle"><textPath startOffset="22.145653131862474" xlink:href="#id44">August</textPath></text><path d="M 89.65649057296885 118.27599006163327 l -7.857236488199004 13.882984008788569 a36.95222273602538,36.95222273602538 0 0,0 -0.54936963178511,-0.3171787047957413 l 8.094398587844514 -13.746058406716656" fill="#ff6f0a" stroke="none" /><path d="M 88.4268655584334 117.5232005979908 l -9.76566578045103 14.786462674204733 a38.7202625982552,38.7202625982552 0 0,0 -0.5514940128093718,-0.371069784213939 l 10.018056081357408 -14.616643215933673" fill="#ff8b0c" stroke="none" /><path d="M 88.1277618465304 117.32195027204791 l -18.18257438876271 26.52891942602374 a53.16192745025319,53.16192745025319 0 0,0 -0.7483298436647139,-0.5223923491024459 l 18.63529932360119 -26.212882261116167" fill="#a8ff21" stroke="none" /><path d="M 87.83215693770417 117.11559508785305 l -18.296301269747616 25.736039044481746 a52.57686409149042,52.57686409149042 0 0,0 -0.7311163204620466,-0.529271833931631 l 18.73539860058362 -25.41816643917705" fill="#afff20" stroke="none" /><path d="M 87.54013794807813 116.9041958592261 l -18.741582417697618 25.426555974728654 a52.58728637055361,52.58728637055361 0 0,0 -0.7220660402972728,-0.541851818019343 l 19.175301446905657 -25.1010851294453" fill="#afff20" stroke="none" /><path d="M 87.2517909369889 116.68781488649013 l -19.143048744083526 25.05886530612546 a52.53415680890954,52.53415680890954 0 0,0 -0.7119380283232934,-0.5536073169428586 l 19.570396717042048 -24.726556937561806" fill="#b0ff20" stroke="none" /><path d="M 86.13680546590413 115.77377054828092 l -18.45755725395113 21.001311947944277 a48.95955155788002,48.95955155788002 0 0,0 -0.626530655935556,-0.5602475759173134 l 18.815352936710056 -20.68136884214358" fill="#dfff1b" stroke="none" /><path d="M 85.86807049272751 115.53346607816431 l -21.25034948121343 23.357856593163405 a52.57794828199728,52.57794828199728 0 0,0 -0.6624076095624011,-0.6131145942395617 l 21.648186862089798 -22.989624252791465" fill="#afff20" stroke="none" /><path d="M 85.60350026404147 115.28858382429668 l -21.624256754963245 22.96421130829532 a52.54304172423154,52.54304172423154 0 0,0 -0.6513523541497267,-0.6239808210890951 l 22.015281594978283 -22.58961835690064" fill="#b0ff20" stroke="none" /><path d="M 84.58840730492382 114.26474011684316 l -20.84642597425939 19.295140662705464 a49.40556158736994,49.40556158736994 0 0,0 -0.5707572777282881,-0.6273622301820341 l 21.174580952829558 -18.934440856965757" fill="#d9ff1c" stroke="none" /><path d="M 84.1078160697243 113.72728997021213 l -23.858330360973643 20.608257525025948 a52.5265000567958,52.5265000567958 0 0,0 -0.5835580011044972,-0.687429857965374 l 24.20858292558525 -20.195660884611023" fill="#b0ff20" stroke="none" /><path d="M 83.8745106332314 113.45245675266167 l -24.880376563414746 20.75609503045707 a53.40136754599538,53.40136754599538 0 0,0 -0.5811929718878212,-0.7089609250477876 l 25.233016354541196 -20.32593182371079" fill="#a5ff21" stroke="none" /><path d="M 83.64595745247003 113.17365903436017 l -25.323077180216895 20.398478449803786 a53.51701340748149,53.51701340748149 0 0,0 -0.5701691633837731,-0.7203901119783648 l 25.669512774242232 -19.96076839391074" fill="#a3ff21" stroke="none" /><line stroke="#e1ed5e" stroke-width="0.3" x1="26.387840678322732" x2="22.057713659400548" y1="142.50000000000003" y2="145.00000000000006" /><path d="M 25.521815274538298 143.00000000000003 a86.0,86.0 0 0,1 -11.493303480769221,-40.785679425670985" fill="none" id="id45" stroke="none" /><text fill="#e1ed5e" style="font-size:6.75px; font-family:Arial;" text-anchor="middle"><textPath startOffset="21.40746469413373" xlink:href="#id45">September</textPath></text><path d="M 80.41425534168474 107.57618678355246 l -11.094724047444263 4.291677603369677 a32.89585635169671,32.89585635169671 0 0,0 -0.1992068360754197,-0.5284197998859148 l 11.166761567334119 -4.100589523289617" fill="#ff2f04" stroke="none" /><path d="M 80.16572619554312 106.89939002012753 l -14.487453477796517 5.0394883587475094 a36.33892927127803,36.33892927127803 0 0,0 -0.19988933787063065,-0.5909373094068249 l 14.571828237239515 -4.790049374866523" fill="#ff6609" stroke="none" /><line stroke="#e1ed5e" stroke-width="0.3" x1="15.003131293944662" x2="10.003315487706104" y1="100.72959589197737" y2="100.7725132973878" /><path d="M 14.003168132696942 100.73817937305945 a86.0,86.0 0 0,1 10.791469493833604,-42.45332614584628" fill="none" id="id46" stroke="none" /><text fill="#e1ed5e" style="font-size:6.75px; font-family:Arial;" text-anchor="middle"><textPath startOffset="22.145653131862435" xlink:href="#id46">October</textPath></text><line stroke="#e1ed5e" stroke-width="0.3" x1="26.387840678322718" x2="22.05771365940052" y1="57.49999999999999" y2="54.99999999999999" /><path d="M 25.521815274538284 56.99999999999999 a86.0,86.0 0 0,1 29.574782752854787,-30.34633250058573" fill="none" id="id47" stroke="none" /><text fill="#e1ed5e" style="font-size:6.75px; font-family:Arial;" text-anchor="middle"><textPath startOffset="21.40746469413373" xlink:href="#id47">November</textPath></text><path d="M 84.58840730492382 85.73525988315684 l -12.020709470327283 -11.126189226962731 a37.37954647980821,37.37954647980821 0 0,0 0.4399112785746897,-0.46717053319175006 l 11.827942358016323 11.330901220098994" fill="#ff760a" stroke="none" /><path d="M 87.54013794807813 83.09580414077388 l -12.557744076536153 -17.036991624402514 a42.16497153085116,42.16497153085116 0 0,0 0.5863320182880746,-0.42445916460466687 l 12.26343104787411 17.25005156038026" fill="#ffbf11" stroke="none" /><path d="M 87.83215693770416 82.88440491214696 l -13.720999455377605 -19.300304061826438 a44.68053130597848,44.68053130597848 0 0,0 0.6289421134767375,-0.43905044131285675 l 13.387662250727102 19.532999318944423" fill="#ffe315" stroke="none" /><line stroke="#e1ed5e" stroke-width="0.3" x1="56.869717070023135" x2="54.33264160355391" y1="26.7553504044142" y2="22.446841604673864" /><path d="M 56.362301976729285 25.89364864446614 a86.0,86.0 0 0,1 42.16139366436587,-11.88097634709845" fill="none" id="id48" stroke="none" /><text fill="#e1ed5e" style="font-size:6.75px; font-family:Arial;" text-anchor="middle"><textPath startOffset="22.145653131862474" xlink:href="#id48">December</textPath></text></svg>