<?xml version="1.0" encoding="utf-8" ?>
<svg baseProfile="full" height="200mm" version="1.1" viewBox="0,0,200,200" width="200mm" xmlns="http://www.w3.org/2000/svg" xmlns:ev="http://www.w3.org/2001/xml-events" xmlns:xlink="http://www.w3.org/1999/xlink"><defs /><rect fill="#1a1a1a" height="200" width="200" x="0" y="0" /><text alignment-baseline="middle" fill="#e1ed5e" style="dominant-baseline: central; font-size:9.0px; font-family:Arial;" text-anchor="middle" x="100.0" y="100.0">2023</text><line stroke="#e1ed5e" stroke-width="0.3" x1="100.0" x2="100.0" y1="15.0" y2="10.0" /><path d="M 100.0 14.0 a86.0,86.0 0 0,1 42.46469731375804,11.215312516191453" fill="none" id="id25" stroke="none" /><text fill="#e1ed5e" style="font-size:6.75px; font-family:Arial;" text-anchor="middle"><textPath startOffset="22.20632615414155" xlink:href="#id25">January</textPath></text><line stroke="#e1ed5e" stroke-width="0.3" x1="143.23703022742887" x2="145.7803849466894" y1="26.81831364943548" y2="22.513508569990506" /><path d="M 143.74570117128098 25.957352633546492 a86.0,86.0 0 0,1 28.547481713284135,27.462654790039103" fill="none" id="id26" stroke="none" /><text fill="#e1ed5e" style="font-size:6.75px; font-family:Arial;" text-anchor="middle"><textPath startOffset="19.985693538727396" xlink:href="#id26">February</textPath></text><path d="M 110.68208982089419 81.91981866633111 l 32.04626946268258 -54.24054400100664 a84.0,84.0 0 0,0 1.23855173512945,0.7462135621655417 l -32.97518326402967 53.68088382938249" fill="#4dd2ff" stroke="none" /><path d="M 110.99172775467656 82.1063720568725 l 14.123572432489885 -22.992013264453604 a47.98347591042708,47.98347591042708 0 0,0 0.7000580010267494,0.438376256019506 l -14.517249585888898 22.74549266711115" fill="#ffe915" stroke="none" /><path d="M 111.2981086023043 82.29822771554956 l 7.02330777970685 -11.004053809026347 a34.05434994170288,34.05434994170288 0 0,0 0.4914090927531976,0.31962614335988343 l -7.2116838982443285 10.881528741506935" fill="#ff0000" stroke="none" /><path d="M 115.9244219780498 86.31012108654704 l 20.512753265234224 -17.634367436988992 a48.0507663740441,48.0507663740441 0 0,0 0.5337968480416478,0.6318470998883307 l -20.813260726762987 17.278661387471555" fill="#ffea16" stroke="none" /><path d="M 116.15771136456269 86.58626213691792 l 20.761486446348158 -17.235679642726605 a47.98347591042708,47.98347591042708 0 0,0 0.5221093619498999,0.6400443428447129 l -21.055094300374467 16.87575113027379" fill="#ffe915" stroke="none" /><path d="M 116.60985879189232 87.15038557335679 l 31.987083063360615 -24.745645893017645 a61.441568633832105,61.441568633832105 0 0,0 0.6399404443138346,0.8420866117412974 l -32.408299447898564 24.191374505395313" fill="#58ff2a" stroke="none" /><line stroke="#e1ed5e" stroke-width="0.3" x1="172.23445277983987" x2="176.4835382374775" y1="55.19839476539836" y2="52.563006222186495" /><path d="M 173.08426987136738 54.67131705675599 a86.0,86.0 0 0,1 12.851231095245387,41.99856678651699" fill="none" id="id27" stroke="none" /><text fill="#e1ed5e" style="font-size:6.75px; font-family:Arial;" text-anchor="middle"><textPath startOffset="22.20632615414155" xlink:href="#id27">March</textPath></text><line stroke="#e1ed5e" stroke-width="0.3" x1="184.98032266829074" x2="189.97916517819016" y1="98.17113171792111" y2="98.06355123074" /><path d="M 185.9800911702706 98.14961562048488 a86.0,86.0 0 0,1 -9.607161424134198,41.387399972396054" fill="none" id="id28" stroke="none" /><text fill="#e1ed5e" style="font-size:6.75px; font-family:Arial;" text-anchor="middle"><textPath startOffset="21.466115282336823" xlink:href="#id28">April</textPath></text><path d="M 120.99824983174949 100.27111621757518 l 33.70971262517126 0.4352386439685222 a54.7125222721296,54.7125222721296 0 0,0 -0.02026431278941702,0.9416029882360858 l -33.69722624969683 -1.0154314479947228" fill="#b2ff20" stroke="none" /><path d="M 120.9904718944345 100.63252640178507 l 33.69722624969683 1.0154314479947228 a54.7125222721296,54.7125222721296 0 0,0 -0.03646945800670745,0.9411146627593407 l -33.67475465883892 -1.5953233577680697" fill="#b2ff20" stroke="none" /><path d="M 120.9764740272857 100.99374915477107 l 33.876399896317004 1.6048761922457229 a54.91439366298067,54.91439366298067 0 0,0 -0.05285810879655123,0.9438170406314533 l -33.84375543663292 -2.1877649492125992" fill="#afff20" stroke="none" /><path d="M 120.95626037817324 101.35467743843564 l 33.64230451141487 2.17474253880062 a54.7125222721296,54.7125222721296 0 0,0 -0.06884252964684451,0.9393016213867373 l -33.599885423103686 -2.7535172966841275" fill="#b2ff20" stroke="none" /><path d="M 120.92983693683757 101.71520430193887 l 33.599885423103686 2.7535172966841275 a54.7125222721296,54.7125222721296 0 0,0 -0.08500086322989216,0.9379774427341669 l -33.54750996359672 -3.331476127966865" fill="#b2ff20" stroke="none" /><path d="M 120.81339534386255 102.79330883721812 l 33.41295495660022 4.484261256554861 a54.7125222721296,54.7125222721296 0 0,0 -0.13330562492042122,0.9323392302121085 l -33.330815280663195 -5.058745958747379" fill="#b2ff20" stroke="none" /><path d="M 120.76222939487914 103.15116336523771 l 33.330815280663195 5.058745958747379 a54.7125222721296,54.7125222721296 0 0,0 -0.14933456148130486,0.929906456895056 l -33.2387989648206 -5.63173164533564" fill="#b2ff20" stroke="none" /><path d="M 120.70491114924044 103.5080841355445 l 33.41892320691475 5.662250539696634 a54.89521366629749,54.89521366629749 0 0,0 -0.16587126693699825,0.930294153253755 l -33.31650549763856 -6.236663443683608" fill="#afff20" stroke="none" /><path d="M 120.32669344350535 105.2749913415812 l 32.63162406823451 8.468250623254628 a54.7125222721296,54.7125222721296 0 0,0 -0.24441366488294453,0.9095541711445332 l -32.48102232700979 -9.02869572757471" fill="#b2ff20" stroke="none" /><line stroke="#e1ed5e" stroke-width="0.3" x1="174.80103733775053" x2="179.2010983576182" y1="140.37084112569926" y2="142.7455964860345" /><path d="M 175.68104954172406 140.8457921977663 a86.0,86.0 0 0,1 -30.038265399797805,32.042727171017184" fill="none" id="id29" stroke="none" /><text fill="#e1ed5e" style="font-size:6.75px; font-family:Arial;" text-anchor="middle"><textPath startOffset="22.206326154141568" xlink:href="#id29">May</textPath></text><path d="M 117.94076556474637 110.91462005526583 l 28.801355175265126 17.521874843094356 a54.7125222721296,54.7125222721296 0 0,0 -0.49641286408546753,0.800375598202733 l -28.495477671511694 -18.015046772662362" fill="#b2ff20" stroke="none" /><line stroke="#e1ed5e" stroke-width="0.3" x1="143.8653032363475" x2="146.44561519142675" y1="172.8068346515853" y2="177.08958963109032" /><path d="M 144.38136562736335 173.6633856474863 a86.0,86.0 0 0,1 -40.68145358897372,12.25698825130547" fill="none" id="id30" stroke="none" /><text fill="#e1ed5e" style="font-size:6.75px; font-family:Arial;" text-anchor="middle"><textPath startOffset="21.466115282336833" xlink:href="#id30">June</textPath></text><line stroke="#e1ed5e" stroke-width="0.3" x1="102.19456741930631" x2="102.32365962044197" y1="184.97166512339345" y2="189.96999836594603" /><path d="M 102.22038585953345 185.97133177190398 a86.0,86.0 0 0,1 -42.740103519485714,-10.115201625700543" fill="none" id="id31" stroke="none" /><text fill="#e1ed5e" style="font-size:6.75px; font-family:Arial;" text-anchor="middle"><textPath startOffset="22.20632615414155" xlink:href="#id31">July</textPath></text><path d="M 92.40401165467489 119.57807347666478 l -11.316339823059893 29.16699216358417 a52.28534767045991,52.28534767045991 0 0,0 -0.8362641102062579,-0.3327667479753754 l 11.81672500930801 -28.967878571202725" fill="#d4ff1c" stroke="none" /><path d="M 92.06813273071674 119.44442032107085 l -12.83449863407602 31.46287974555764 a54.97995228177227,54.97995228177227 0 0,0 -0.873208725782794,-0.36500131819653375 l 13.374178819356276 -31.237293384341136" fill="#aeff20" stroke="none" /><path d="M 91.7346041902142 119.30500536409082 l -13.397358914505942 31.2914337874752 a55.038846254831206,55.038846254831206 0 0,0 -0.8677249564602718,-0.38038512082632825 l 13.934004545623957 -31.05618411335442" fill="#adff20" stroke="none" /><path d="M 91.40352486487194 119.15986991738527 l -11.319923237733068 25.229905664878256 a48.653007105319034,48.653007105319034 0 0,0 -0.7611461874405926,-0.34940488279096477 l 11.75253742094108 -25.031313711753217" fill="#fff417" stroke="none" /><path d="M 91.07499286063937 119.00905698771935 l -9.170986965406001 19.532960717779634 a42.578775598304205,42.578775598304205 0 0,0 -0.6607563609308454,-0.3172032073447371 l 9.50585599433709 -19.372203233935334" fill="#ff930d" stroke="none" /><path d="M 90.10565033884886 118.52300852407294 l -15.953815386824775 29.866809696642605 a54.86075230783202,54.86075230783202 0 0,0 -0.8291214907728912,-0.4521031446839206 l 16.465559689466307 -29.587765900198917" fill="#b0ff20" stroke="none" /><line stroke="#e1ed5e" stroke-width="0.3" x1="58.666819895761336" x2="56.23545636021788" y1="174.27360380694188" y2="178.64263932499728" /><path d="M 58.180547188652646 175.14741091055294 a86.0,86.0 0 0,1 -31.652253787137756,-30.449443065178592" fill="none" id="id32" stroke="none" /><text fill="#e1ed5e" style="font-size:6.75px; font-family:Arial;" text-anchor="middle"><textPath startOffset="22.20632615414155" xlink:href="#id32">August</textPath></text><path d="M 89.7882731507175 118.34994917583269 l -12.81837482445626 23.033961837911157 a47.36046530489554,47.36046530489554 0 0,0 -0.7089438413228236,-0.4025568154008081 l 13.21296743270029 -22.809901856715715" fill="#ffe015" stroke="none" /><path d="M 89.4739219176387 118.17145234162733 l -17.015741933229386 29.374733987128593 a54.94717175778902,54.94717175778902 0 0,0 -0.8143488212926587,-0.4811316376782291 l 17.518858625550426 -29.077483777156612" fill="#afff20" stroke="none" /><path d="M 89.1626897886671 117.98757091392108 l -8.259005812531836 13.70814803991212 a37.00389014257412,37.00389014257412 0 0,0 -0.5427603736825065,-0.3334077517709864 l 8.493745386146651 -13.563951821312756" fill="#ff3505" stroke="none" /><line stroke="#e1ed5e" stroke-width="0.3" x1="26.63291911575756" x2="22.317208475507996" y1="142.92168965132927" y2="145.44649492493687" /><path d="M 25.769776987707644 143.4266507060508 a86.0,86.0 0 0,1 -11.730757126820373,-40.83630448921669" fill="none" id="id33" stroke="none" /><text fill="#e1ed5e" style="font-size:6.75px; font-family:Arial;" text-anchor="middle"><textPath startOffset="21.46611528233685" xlink:href="#id33">September</textPath></text><line stroke="#e1ed5e" stroke-width="0.3" x1="15.007084014347285" x2="10.007500721073583" y1="101.09737516637583" y2="101.16192664675087" /><path d="M 14.007167355692545 101.11028546245083 a86.0,86.0 0 0,1 10.666146001902534,-42.60595125391555" fill="none" id="id34" stroke="none" /><text fill="#e1ed5e" style="font-size:6.75px; font-family:Arial;" text-anchor="middle"><textPath startOffset="22.20632615414155" xlink:href="#id34">October</textPath></text><line stroke="#e1ed5e" stroke-width="0.3" x1="26.266209847984243" x2="21.928928074336255" y1="57.711370442889674" y2="55.22380399835377" /><path d="M 25.398753493254645 57.213857153982495 a86.0,86.0 0 0,1 29.58750427330803,-30.492523968695096" fill="none" id="id35" stroke="none" /><text fill="#e1ed5e" style="font-size:6.75px; font-family:Arial;" text-anchor="middle"><textPath startOffset="21.46611528233685" xlink:href="#id35">November</textPath></text><line stroke="#e1ed5e" stroke-width="0.3" x1="56.762969772571076" x2="54.21961505331055" y1="26.818313649435495" y2="22.513508569990535" /><path d="M 56.25429882871897 25.957352633546506 a86.0,86.0 0 0,1 42.265352541879196,-11.944610805530505" fill="none" id="id36" stroke="none" /><text fill="#e1ed5e" style="font-size:6.75px; font-family:Arial;" text-anchor="middle"><textPath startOffset="22.20632615414155" xlink:href="#id36">December</textPath></text></svg>