<?xml version="1.0" encoding="utf-8" ?>
<svg baseProfile="full" height="200mm" version="1.1" viewBox="0,0,200,200" width="200mm" xmlns="http://www.w3.org/2000/svg" xmlns:ev="http://www.w3.org/2001/xml-events" xmlns:xlink="http://www.w3.org/1999/xlink"><defs /><rect fill="#1a1a1a" height="200" width="200" x="0" y="0" /><text alignment-baseline="middle" fill="#e1ed5e" style="dominant-baseline: central; font-size:9.0px; font-family:Arial;" text-anchor="middle" x="100.0" y="100.0">2022</text><line stroke="#e1ed5e" stroke-width="0.3" x1="100.0" x2="100.0" y1="15.0" y2="10.0" /><path d="M 100.0 14.0 a86.0,86.0 0 0,1 42.46469731375804,11.215312516191453" fill="none" id="id13" stroke="none" /><text fill="#e1ed5e" style="font-size:6.75px; font-family:Arial;" text-anchor="middle"><textPath startOffset="22.20632615414155" xlink:href="#id13">January</textPath></text><line stroke="#e1ed5e" stroke-width="0.3" x1="143.23703022742887" x2="145.7803849466894" y1="26.81831364943548" y2="22.513508569990506" /><path d="M 143.74570117128098 25.957352633546492 a86.0,86.0 0 0,1 28.547481713284135,27.462654790039103" fill="none" id="id14" stroke="none" /><text fill="#e1ed5e" style="font-size:6.75px; font-family:Arial;" text-anchor="middle"><textPath startOffset="19.985693538727396" xlink:href="#id14">February</textPath></text><line stroke="#e1ed5e" stroke-width="0.3" x1="172.23445277983987" x2="176.4835382374775" y1="55.19839476539836" y2="52.563006222186495" /><path d="M 173.08426987136738 54.67131705675599 a86.0,86.0 0 0,1 12.851231095245387,41.99856678651699" fill="none" id="id15" stroke="none" /><text fill="#e1ed5e" style="font-size:6.75px; font-family:Arial;" text-anchor="middle"><textPath startOffset="22.20632615414155" xlink:href="#id15">March</textPath></text><line stroke="#e1ed5e" stroke-width="0.3" x1="184.98032266829074" x2="189.97916517819016" y1="98.17113171792111" y2="98.06355123074" /><path d="M 185.9800911702706 98.14961562048488 a86.0,86.0 0 0,1 -9.607161424134198,41.387399972396054" fill="none" id="id16" stroke="none" /><text fill="#e1ed5e" style="font-size:6.75px; font-family:Arial;" text-anchor="middle"><textPath startOffset="21.466115282336823" xlink:href="#id16">April</textPath></text><line stroke="#e1ed5e" stroke-width="0.3" x1="174.80103733775053" x2="179.2010983576182" y1="140.37084112569926" y2="142.7455964860345" /><path d="M 175.68104954172406 140.8457921977663 a86.0,86.0 0 0,1 -30.038265399797805,32.042727171017184" fill="none" id="id17" stroke="none" /><text fill="#e1ed5e" style="font-size:6.75px; font-family:Arial;" text-anchor="middle"><textPath startOffset="22.206326154141568" xlink:href="#id17">May</textPath></text><line stroke="#e1ed5e" stroke-width="0.3" x1="143.8653032363475" x2="146.44561519142675" y1="172.8068346515853" y2="177.08958963109032" /><path d="M 144.38136562736335 173.6633856474863 a86.0,86.0 0 0,1 -40.68145358897372,12.25698825130547" fill="none" id="id18" stroke="none" /><text fill="#e1ed5e" style="font-size:6.75px; font-family:Arial;" text-anchor="middle"><textPath startOffset="21.466115282336833" xlink:href="#id18">June</textPath></text><line stroke="#e1ed5e" stroke-width="0.3" x1="102.19456741930631" x2="102.32365962044197" y1="184.97166512339345" y2="189.96999836594603" /><path d="M 102.22038585953345 185.97133177190398 a86.0,86.0 0 0,1 -42.740103519485714,-10.115201625700543" fill="none" id="id19" stroke="none" /><text fill="#e1ed5e" style="font-size:6.75px; font-family:Arial;" text-anchor="middle"><textPath startOffset="22.20632615414155" xlink:href="#id19">July</textPath></text><line stroke="#e1ed5e" stroke-width="0.3" x1="58.666819895761336" x2="56.23545636021788" y1="174.27360380694188" y2="178.64263932499728" /><path d="M 58.180547188652646 175.14741091055294 a86.0,86.0 0 0,1 -31.652253787137756,-30.449443065178592" fill="none" id="id20" stroke="none" /><text fill="#e1ed5e" style="font-size:6.75px; font-family:Arial;" text-anchor="middle"><textPath startOffset="22.20632615414155" xlink:href="#id20">August</textPath></text><line stroke="#e1ed5e" stroke-width="0.3" x1="26.63291911575756" x2="22.317208475507996" y1="142.92168965132927" y2="145.44649492493687" /><path d="M 25.769776987707644 143.4266507060508 a86.0,86.0 0 0,1 -11.730757126820373,-40.83630448921669" fill="none" id="id21" stroke="none" /><text fill="#e1ed5e" style="font-size:6.75px; font-family:Arial;" text-anchor="middle"><textPath startOffset="21.46611528233685" xlink:href="#id21">September</textPath></text><path d="M 81.18737489456691 109.33194174019688 l -18.36107430333374 9.107951427610823 a41.49594664269647,41.49594664269647 0 0,0 -0.31190476386852495,-0.6426161967085788 l 18.51513232381698 -8.79054627493696" fill="#ff0400" stroke="none" /><path d="M 80.73074385275274 108.34839909993369 l -18.621152161241806 8.06760825403462 a41.293684011354074,41.293684011354074 0 0,0 -0.27696070837876946,-0.6546533017367527 l 18.757263850812883 -7.745880426631709" fill="#ff0000" stroke="none" /><path d="M 80.58989483394504 108.01547362559985 l -25.238178935479123 10.422197916232033 a48.30545523122392,48.30545523122392 0 0,0 -0.3107590818497687,-0.7712785559843068 l 25.413840631586282 -9.986219992404921" fill="#ff8e0d" stroke="none" /><path d="M 80.45479744820244 107.68017299344265 l -25.162839736459503 9.887590659146602 a48.035771722767386,48.035771722767386 0 0,0 -0.29577619370924674,-0.7721783086946891 l 25.32931020976226 -9.452988783618755" fill="#ff890c" stroke="none" /><path d="M 80.32549172779594 107.34259656027581 l -25.32931020976226 9.452988783618755 a48.035771722767386,48.035771722767386 0 0,0 -0.28244059103109753,-0.7771552031105469 l 25.488275061798582 -9.01558578350209" fill="#ff890c" stroke="none" /><path d="M 80.20201598880116 107.00284435728193 l -25.488275061798582 9.01558578350209 a48.035771722767386,48.035771722767386 0 0,0 -0.26902129511025885,-0.7819018096672935 l 25.63968718785207 -8.5755112707455" fill="#ff890c" stroke="none" /><path d="M 80.0844068197444 106.66101706037122 l -20.972113211011166 7.014383283801805 a43.114047693435666,43.114047693435666 0 0,0 -0.2293415817815127,-0.7058408106386966 l 21.08974704380893 -6.652343573185305" fill="#ff2603" stroke="none" /><path d="M 79.97269907076064 106.31721596034903 l -25.783501721242015 8.132895648924718 a48.035771722767386,48.035771722767386 0 0,0 -0.24194755287027928,-0.790698601771797 l 25.919676046618427 -7.687870074600873" fill="#ff890c" stroke="none" /><path d="M 79.86692584326677 105.97154293290107 l -25.919676046618427 7.687870074600873 a48.035771722767386,48.035771722767386 0 0,0 -0.22830112908525993,-0.7947461806401545 l 26.04816981258979 -7.2405664184561225" fill="#ff890c" stroke="none" /><path d="M 79.76711848015287 105.62410040840567 l -26.04816981258979 7.2405664184561225 a48.035771722767386,48.035771722767386 0 0,0 -0.2145870547485801,-0.7985582590632456 l 26.168944943680145 -6.791117226217338" fill="#ff890c" stroke="none" /><path d="M 79.58551787078972 104.9243191809786 l -26.2819656516116 6.339655679380113 a48.035771722767386,48.035771722767386 0 0,0 -0.18697222836704988,-0.8054714662874034 l 26.387198445909206 -5.886315555744135" fill="#ff890c" stroke="none" /><path d="M 79.50377843672027 104.57218783832718 l -26.387198445909206 5.886315555744135 a48.035771722767386,48.035771722767386 0 0,0 -0.1730796591912629,-0.8085705465560993 l 26.484612143824908 -5.4312311897718715" fill="#ff890c" stroke="none" /><path d="M 79.4281124754447 104.21870165774334 l -26.484612143824908 5.4312311897718715 a48.035771722767386,48.035771722767386 0 0,0 -0.15913580277707207,-0.8114300299213822 l 26.574177879577647 -4.974537432782535" fill="#ff890c" stroke="none" /><path d="M 79.35854240842038 103.8639653848113 l -26.574177879577647 4.974537432782535 a48.035771722767386,48.035771722767386 0 0,0 -0.14514479099010422,-0.8140490690567918 l 26.65586911290694 -4.51636961299253" fill="#ff890c" stroke="none" /><path d="M 79.29508885075956 103.50808413554451 l -26.65586911290694 4.51636961299253 a48.035771722767386,48.035771722767386 0 0,0 -0.13111076966907353,-0.8164268878843371 l 26.729661636937305 -4.056863495414978" fill="#ff890c" stroke="none" /><path d="M 79.23777060512086 103.15116336523772 l -26.66300412662075 4.046746628842871 a47.96835084565325,47.96835084565325 0 0,0 -0.11687362819936066,-0.8174138834166569 l 26.72871180583671 -3.5871872734458132" fill="#ff880c" stroke="none" /><path d="M 79.1416061653843 102.43462659150553 l -26.853465438868984 3.13438136943442 a48.035771722767386,48.035771722767386 0 0,0 -0.088792290661842,-0.8221063351555036 l 26.903440031031877 -2.671678712394134" fill="#ff890c" stroke="none" /><path d="M 79.10278846688536 102.07522291339032 l -26.903440031031877 2.671678712394134 a48.035771722767386,48.035771722767386 0 0,0 -0.07462792598083497,-0.8235129445537507 l 26.945442553289787 -2.208184379291817" fill="#ff890c" stroke="none" /><path d="M 79.07016306316243 101.71520430193888 l -26.945442553289787 2.208184379291817 a48.035771722767386,48.035771722767386 0 0,0 -0.060441447434758246,-0.824675529293663 l 26.979460559388883 -1.7440357135013935" fill="#ff890c" stroke="none" /><line stroke="#e1ed5e" stroke-width="0.3" x1="15.007084014347285" x2="10.007500721073583" y1="101.09737516637583" y2="101.16192664675087" /><path d="M 14.007167355692545 101.11028546245083 a86.0,86.0 0 0,1 10.666146001902534,-42.60595125391555" fill="none" id="id22" stroke="none" /><text fill="#e1ed5e" style="font-size:6.75px; font-family:Arial;" text-anchor="middle"><textPath startOffset="22.20632615414155" xlink:href="#id22">October</textPath></text><path d="M 79.26566170972629 96.67025291283419 l -23.49849179479655 -3.7736451248708076 a44.799569621288995,44.799569621288995 0 0,0 0.12882679114880047,-0.7603430138267571 l 23.430053142127527 4.177573927013393" fill="#ff4906" stroke="none" /><line stroke="#e1ed5e" stroke-width="0.3" x1="26.266209847984243" x2="21.928928074336255" y1="57.711370442889674" y2="55.22380399835377" /><path d="M 25.398753493254645 57.213857153982495 a86.0,86.0 0 0,1 29.58750427330803,-30.492523968695096" fill="none" id="id23" stroke="none" /><text fill="#e1ed5e" style="font-size:6.75px; font-family:Arial;" text-anchor="middle"><textPath startOffset="21.46611528233685" xlink:href="#id23">November</textPath></text><path d="M 86.65592168130627 83.78471172551755 l -17.522133856721023 -21.292324946322246 a48.575138739680455,48.575138739680455 0 0,0 0.6502050673324785,-0.5257539457180053 l 17.153025390824045 21.590784989304385" fill="#ff930d" stroke="none" /><path d="M 86.93701828274178 83.55741782278169 l -16.81751389173702 -21.1684713464818 a48.035771722767386,48.035771722767386 0 0,0 0.6518395775610542,-0.5087711295944541 l 16.450641759016538 21.454820865299478" fill="#ff890c" stroke="none" /><path d="M 87.22198572758235 83.33499621200491 l -16.450641759016538 -21.454820865299478 a48.035771722767386,48.035771722767386 0 0,0 0.660500659149193,-0.4974754028564616 l 16.078894946108957 21.734812857661794" fill="#ff890c" stroke="none" /><path d="M 88.39885842347998 82.49532879139004 l -14.935515018395295 -22.535823565622742 a48.035771722767386,48.035771722767386 0 0,0 0.6931629892332017,-0.45085248978021136 l 14.545385003377804 22.789574979562488" fill="#ff890c" stroke="none" /><path d="M 88.70189139769569 82.29822771554957 l -14.581657783934856 -22.84640683736688 a48.10319259988152,48.10319259988152 0 0,0 0.701804615350142,-0.43946998574858176 l 14.186234016212472 23.09402116443839" fill="#ff8a0c" stroke="none" /><path d="M 89.00827224532344 82.1063720568725 l -14.15094487686866 -23.03657335059651 a48.035771722767386,48.035771722767386 0 0,0 0.7082712906608747,-0.42672552772162087 l 13.752311519990137 23.276745487776747" fill="#ff890c" stroke="none" /><line stroke="#e1ed5e" stroke-width="0.3" x1="56.762969772571076" x2="54.21961505331055" y1="26.818313649435495" y2="22.513508569990535" /><path d="M 56.25429882871897 25.957352633546506 a86.0,86.0 0 0,1 42.265352541879196,-11.944610805530505" fill="none" id="id24" stroke="none" /><text fill="#e1ed5e" style="font-size:6.75px; font-family:Arial;" text-anchor="middle"><textPath startOffset="22.20632615414155" xlink:href="#id24">December</textPath></text><path d="M 89.3179101791058 81.91981866633112 l -32.046269462682616 -54.240544001006626 a84.0,84.0 0 0,0 1.2512130701387194,-0.7247833704398112 l 31.107859660078574 54.78413152883649" fill="#4dd2ff" stroke="none" /><path d="M 89.63071344664047 81.73862282372117 l -13.349603056409025 -23.51002022291566 a48.035771722767386,48.035771722767386 0 0,0 0.7225401500026868,-0.4020928111988758 l 12.942938817334293 23.73632843167472" fill="#ff890c" stroke="none" /><path d="M 89.94658935756843 81.56283822128135 l -12.942938817334293 -23.73632843167472 a48.035771722767386,48.035771722767386 0 0,0 0.729354464649521,-0.38959589587109494 l 12.532439306156467 23.955603054047568" fill="#ff890c" stroke="none" /><path d="M 90.26544431104013 81.39251694778311 l -12.532439306156467 -23.955603054047568 a48.035771722767386,48.035771722767386 0 0,0 0.735952655827649,-0.37698353487115543 l 12.118226162740054 24.167779114231227" fill="#ff890c" stroke="none" /><path d="M 90.58718382345135 81.22770947309562 l -12.118226162740054 -24.167779114231227 a48.035771722767386,48.035771722767386 0 0,0 0.742332768350767,-0.36425946551390337 l 11.700422127378861 24.37279373987996" fill="#ff890c" stroke="none" /><path d="M 90.91171255644093 81.06846463323043 l -11.700422127378861 -24.37279373987996 a48.035771722767386,48.035771722767386 0 0,0 0.7484929116536968,-0.35142745821561905 l 11.279151004425556 24.570586180735585" fill="#ff890c" stroke="none" /><path d="M 91.23893434514133 80.91482961587045 l -11.279151004425556 -24.570586180735585 a48.035771722767386,48.035771722767386 0 0,0 0.7544312603531792,-0.33849131537707544 l 10.854537625605602 24.76109782662919" fill="#ff890c" stroke="none" /><path d="M 91.56875222667455 80.76684994638697 l -10.854537625605602 -24.76109782662919 a48.035771722767386,48.035771722767386 0 0,0 0.7601460547882204,-0.32545487025653297 l 10.426707813027074 24.94427222484851" fill="#ff890c" stroke="none" /><path d="M 98.19473922651362 79.07773832637324 l -2.324124674859251 -26.93569002534182 a48.035771722767386,48.035771722767386 0 0,0 0.8244077804969874,-0.06398991045329998 l 1.8601267049999293 26.971705197983585" fill="#ff890c" stroke="none" /></svg>